<mxfile host="Electron" agent="Mozilla/5.0 (Windows NT 10.0; Win64; x64) AppleWebKit/537.36 (KHTML, like Gecko) draw.io/24.7.5 Chrome/126.0.6478.183 Electron/31.3.0 Safari/537.36" version="24.7.5" pages="6">
  <diagram id="XmuHiyQ2-HndU6ZHUzZJ" name="第 3 页">
    <mxGraphModel dx="3434" dy="1334" grid="1" gridSize="10" guides="1" tooltips="1" connect="1" arrows="1" fold="1" page="0" pageScale="1" pageWidth="1169" pageHeight="827" math="0" shadow="0">
      <root>
        <mxCell id="0" />
        <mxCell id="1" parent="0" />
        <mxCell id="jVkeZ5hO6xtGJMO7U0UU-37" value="" style="shape=table;startSize=0;container=1;collapsible=0;childLayout=tableLayout;" parent="1" vertex="1">
          <mxGeometry x="-1390" y="531" width="710" height="469" as="geometry" />
        </mxCell>
        <mxCell id="jVkeZ5hO6xtGJMO7U0UU-38" value="" style="shape=tableRow;horizontal=0;startSize=0;swimlaneHead=0;swimlaneBody=0;strokeColor=inherit;top=0;left=0;bottom=0;right=0;collapsible=0;dropTarget=0;fillColor=none;points=[[0,0.5],[1,0.5]];portConstraint=eastwest;" parent="jVkeZ5hO6xtGJMO7U0UU-37" vertex="1">
          <mxGeometry width="710" height="40" as="geometry" />
        </mxCell>
        <mxCell id="jVkeZ5hO6xtGJMO7U0UU-39" value="type" style="shape=partialRectangle;html=1;whiteSpace=wrap;connectable=0;strokeColor=inherit;overflow=hidden;fillColor=none;top=0;left=0;bottom=0;right=0;pointerEvents=1;" parent="jVkeZ5hO6xtGJMO7U0UU-38" vertex="1">
          <mxGeometry width="200" height="40" as="geometry">
            <mxRectangle width="200" height="40" as="alternateBounds" />
          </mxGeometry>
        </mxCell>
        <mxCell id="jVkeZ5hO6xtGJMO7U0UU-40" value="userId" style="shape=partialRectangle;html=1;whiteSpace=wrap;connectable=0;strokeColor=inherit;overflow=hidden;fillColor=none;top=0;left=0;bottom=0;right=0;pointerEvents=1;" parent="jVkeZ5hO6xtGJMO7U0UU-38" vertex="1">
          <mxGeometry x="200" width="140" height="40" as="geometry">
            <mxRectangle width="140" height="40" as="alternateBounds" />
          </mxGeometry>
        </mxCell>
        <mxCell id="jVkeZ5hO6xtGJMO7U0UU-41" value="targetId" style="shape=partialRectangle;html=1;whiteSpace=wrap;connectable=0;strokeColor=inherit;overflow=hidden;fillColor=none;top=0;left=0;bottom=0;right=0;pointerEvents=1;" parent="jVkeZ5hO6xtGJMO7U0UU-38" vertex="1">
          <mxGeometry x="340" width="190" height="40" as="geometry">
            <mxRectangle width="190" height="40" as="alternateBounds" />
          </mxGeometry>
        </mxCell>
        <mxCell id="jVkeZ5hO6xtGJMO7U0UU-42" value="contentId" style="shape=partialRectangle;html=1;whiteSpace=wrap;connectable=0;strokeColor=inherit;overflow=hidden;fillColor=none;top=0;left=0;bottom=0;right=0;pointerEvents=1;" parent="jVkeZ5hO6xtGJMO7U0UU-38" vertex="1">
          <mxGeometry x="530" width="180" height="40" as="geometry">
            <mxRectangle width="180" height="40" as="alternateBounds" />
          </mxGeometry>
        </mxCell>
        <mxCell id="jVkeZ5hO6xtGJMO7U0UU-45" value="" style="shape=tableRow;horizontal=0;startSize=0;swimlaneHead=0;swimlaneBody=0;strokeColor=inherit;top=0;left=0;bottom=0;right=0;collapsible=0;dropTarget=0;fillColor=none;points=[[0,0.5],[1,0.5]];portConstraint=eastwest;" parent="jVkeZ5hO6xtGJMO7U0UU-37" vertex="1">
          <mxGeometry y="40" width="710" height="40" as="geometry" />
        </mxCell>
        <mxCell id="jVkeZ5hO6xtGJMO7U0UU-46" value="&lt;div style=&quot;background-color: rgb(31, 31, 31); font-family: Consolas, &amp;quot;Courier New&amp;quot;, monospace; font-size: 14px; line-height: 19px; white-space: pre;&quot;&gt;&lt;font color=&quot;#4fc1ff&quot;&gt;COMMUNITY&lt;/font&gt;&lt;/div&gt;&lt;div style=&quot;background-color: rgb(31, 31, 31); font-family: Consolas, &amp;quot;Courier New&amp;quot;, monospace; font-size: 14px; line-height: 19px; white-space: pre;&quot;&gt;&lt;font color=&quot;#4fc1ff&quot;&gt;板块/群聊&lt;/font&gt;&lt;/div&gt;" style="shape=partialRectangle;html=1;whiteSpace=wrap;connectable=0;strokeColor=inherit;overflow=hidden;fillColor=none;top=0;left=0;bottom=0;right=0;pointerEvents=1;" parent="jVkeZ5hO6xtGJMO7U0UU-45" vertex="1">
          <mxGeometry width="200" height="40" as="geometry">
            <mxRectangle width="200" height="40" as="alternateBounds" />
          </mxGeometry>
        </mxCell>
        <mxCell id="jVkeZ5hO6xtGJMO7U0UU-47" value="创建者的user_id" style="shape=partialRectangle;html=1;whiteSpace=wrap;connectable=0;strokeColor=inherit;overflow=hidden;fillColor=none;top=0;left=0;bottom=0;right=0;pointerEvents=1;" parent="jVkeZ5hO6xtGJMO7U0UU-45" vertex="1">
          <mxGeometry x="200" width="140" height="40" as="geometry">
            <mxRectangle width="140" height="40" as="alternateBounds" />
          </mxGeometry>
        </mxCell>
        <mxCell id="jVkeZ5hO6xtGJMO7U0UU-48" value="一个子社区tagetid指向其父社区的action_id" style="shape=partialRectangle;html=1;whiteSpace=wrap;connectable=0;strokeColor=inherit;overflow=hidden;fillColor=none;top=0;left=0;bottom=0;right=0;pointerEvents=1;" parent="jVkeZ5hO6xtGJMO7U0UU-45" vertex="1">
          <mxGeometry x="340" width="190" height="40" as="geometry">
            <mxRectangle width="190" height="40" as="alternateBounds" />
          </mxGeometry>
        </mxCell>
        <mxCell id="jVkeZ5hO6xtGJMO7U0UU-49" value="板块信息的id" style="shape=partialRectangle;html=1;whiteSpace=wrap;connectable=0;strokeColor=inherit;overflow=hidden;fillColor=none;top=0;left=0;bottom=0;right=0;pointerEvents=1;" parent="jVkeZ5hO6xtGJMO7U0UU-45" vertex="1">
          <mxGeometry x="530" width="180" height="40" as="geometry">
            <mxRectangle width="180" height="40" as="alternateBounds" />
          </mxGeometry>
        </mxCell>
        <mxCell id="neviRaYVwyy8WAOLnTko-24" style="shape=tableRow;horizontal=0;startSize=0;swimlaneHead=0;swimlaneBody=0;strokeColor=inherit;top=0;left=0;bottom=0;right=0;collapsible=0;dropTarget=0;fillColor=none;points=[[0,0.5],[1,0.5]];portConstraint=eastwest;" parent="jVkeZ5hO6xtGJMO7U0UU-37" vertex="1">
          <mxGeometry y="80" width="710" height="59" as="geometry" />
        </mxCell>
        <mxCell id="neviRaYVwyy8WAOLnTko-25" value="&lt;div&gt;COMMENT_BROADCAST&lt;/div&gt;&lt;div&gt;帖子&lt;/div&gt;" style="shape=partialRectangle;html=1;whiteSpace=wrap;connectable=0;strokeColor=inherit;overflow=hidden;fillColor=none;top=0;left=0;bottom=0;right=0;pointerEvents=1;" parent="neviRaYVwyy8WAOLnTko-24" vertex="1">
          <mxGeometry width="200" height="59" as="geometry">
            <mxRectangle width="200" height="59" as="alternateBounds" />
          </mxGeometry>
        </mxCell>
        <mxCell id="neviRaYVwyy8WAOLnTko-26" value="UserId&lt;div&gt;&lt;br&gt;&lt;/div&gt;" style="shape=partialRectangle;html=1;whiteSpace=wrap;connectable=0;strokeColor=inherit;overflow=hidden;fillColor=none;top=0;left=0;bottom=0;right=0;pointerEvents=1;" parent="neviRaYVwyy8WAOLnTko-24" vertex="1">
          <mxGeometry x="200" width="140" height="59" as="geometry">
            <mxRectangle width="140" height="59" as="alternateBounds" />
          </mxGeometry>
        </mxCell>
        <mxCell id="neviRaYVwyy8WAOLnTko-27" value="community_action_id" style="shape=partialRectangle;html=1;whiteSpace=wrap;connectable=0;strokeColor=inherit;overflow=hidden;fillColor=none;top=0;left=0;bottom=0;right=0;pointerEvents=1;" parent="neviRaYVwyy8WAOLnTko-24" vertex="1">
          <mxGeometry x="340" width="190" height="59" as="geometry">
            <mxRectangle width="190" height="59" as="alternateBounds" />
          </mxGeometry>
        </mxCell>
        <mxCell id="neviRaYVwyy8WAOLnTko-28" value="comment_id" style="shape=partialRectangle;html=1;whiteSpace=wrap;connectable=0;strokeColor=inherit;overflow=hidden;fillColor=none;top=0;left=0;bottom=0;right=0;pointerEvents=1;" parent="neviRaYVwyy8WAOLnTko-24" vertex="1">
          <mxGeometry x="530" width="180" height="59" as="geometry">
            <mxRectangle width="180" height="59" as="alternateBounds" />
          </mxGeometry>
        </mxCell>
        <mxCell id="jVkeZ5hO6xtGJMO7U0UU-52" value="" style="shape=tableRow;horizontal=0;startSize=0;swimlaneHead=0;swimlaneBody=0;strokeColor=inherit;top=0;left=0;bottom=0;right=0;collapsible=0;dropTarget=0;fillColor=none;points=[[0,0.5],[1,0.5]];portConstraint=eastwest;" parent="jVkeZ5hO6xtGJMO7U0UU-37" vertex="1">
          <mxGeometry y="139" width="710" height="100" as="geometry" />
        </mxCell>
        <mxCell id="jVkeZ5hO6xtGJMO7U0UU-53" value="&lt;div&gt;COMMENT&lt;/div&gt;&lt;div&gt;评论&lt;/div&gt;" style="shape=partialRectangle;html=1;whiteSpace=wrap;connectable=0;strokeColor=inherit;overflow=hidden;fillColor=none;top=0;left=0;bottom=0;right=0;pointerEvents=1;" parent="jVkeZ5hO6xtGJMO7U0UU-52" vertex="1">
          <mxGeometry width="200" height="100" as="geometry">
            <mxRectangle width="200" height="100" as="alternateBounds" />
          </mxGeometry>
        </mxCell>
        <mxCell id="jVkeZ5hO6xtGJMO7U0UU-54" value="发言人的UserId&lt;div&gt;注意:发言人不一定是作者,也可能存在多位作者的情况&lt;/div&gt;" style="shape=partialRectangle;html=1;whiteSpace=wrap;connectable=0;strokeColor=inherit;overflow=hidden;fillColor=none;top=0;left=0;bottom=0;right=0;pointerEvents=1;" parent="jVkeZ5hO6xtGJMO7U0UU-52" vertex="1">
          <mxGeometry x="200" width="140" height="100" as="geometry">
            <mxRectangle width="140" height="100" as="alternateBounds" />
          </mxGeometry>
        </mxCell>
        <mxCell id="jVkeZ5hO6xtGJMO7U0UU-55" value="帖子/评论的actionId&lt;div&gt;&lt;br&gt;&lt;/div&gt;" style="shape=partialRectangle;html=1;whiteSpace=wrap;connectable=0;strokeColor=inherit;overflow=hidden;fillColor=none;top=0;left=0;bottom=0;right=0;pointerEvents=1;" parent="jVkeZ5hO6xtGJMO7U0UU-52" vertex="1">
          <mxGeometry x="340" width="190" height="100" as="geometry">
            <mxRectangle width="190" height="100" as="alternateBounds" />
          </mxGeometry>
        </mxCell>
        <mxCell id="jVkeZ5hO6xtGJMO7U0UU-56" value="comment_id" style="shape=partialRectangle;html=1;whiteSpace=wrap;connectable=0;strokeColor=inherit;overflow=hidden;fillColor=none;top=0;left=0;bottom=0;right=0;pointerEvents=1;" parent="jVkeZ5hO6xtGJMO7U0UU-52" vertex="1">
          <mxGeometry x="530" width="180" height="100" as="geometry">
            <mxRectangle width="180" height="100" as="alternateBounds" />
          </mxGeometry>
        </mxCell>
        <mxCell id="jVkeZ5hO6xtGJMO7U0UU-78" style="shape=tableRow;horizontal=0;startSize=0;swimlaneHead=0;swimlaneBody=0;strokeColor=inherit;top=0;left=0;bottom=0;right=0;collapsible=0;dropTarget=0;fillColor=none;points=[[0,0.5],[1,0.5]];portConstraint=eastwest;" parent="jVkeZ5hO6xtGJMO7U0UU-37" vertex="1">
          <mxGeometry y="239" width="710" height="70" as="geometry" />
        </mxCell>
        <mxCell id="jVkeZ5hO6xtGJMO7U0UU-79" value="&lt;div style=&quot;color: rgb(204, 204, 204); background-color: rgb(31, 31, 31); font-family: Consolas, &amp;quot;Courier New&amp;quot;, monospace; font-size: 14px; line-height: 19px; white-space: pre;&quot;&gt;&lt;span style=&quot;color: #4fc1ff;&quot;&gt;COMMENT_COVERED&lt;/span&gt;&lt;/div&gt;&lt;div style=&quot;color: rgb(204, 204, 204); background-color: rgb(31, 31, 31); font-family: Consolas, &amp;quot;Courier New&amp;quot;, monospace; font-size: 14px; line-height: 19px; white-space: pre;&quot;&gt;&lt;div style=&quot;line-height: 19px;&quot;&gt;&lt;span style=&quot;color: #6a9955;&quot;&gt;特指已经过时(被修改过)&lt;/span&gt;&lt;/div&gt;&lt;div style=&quot;line-height: 19px;&quot;&gt;&lt;span style=&quot;color: #6a9955;&quot;&gt;的comment&lt;/span&gt;&lt;/div&gt;&lt;/div&gt;" style="shape=partialRectangle;html=1;whiteSpace=wrap;connectable=0;strokeColor=inherit;overflow=hidden;fillColor=none;top=0;left=0;bottom=0;right=0;pointerEvents=1;" parent="jVkeZ5hO6xtGJMO7U0UU-78" vertex="1">
          <mxGeometry width="200" height="70" as="geometry">
            <mxRectangle width="200" height="70" as="alternateBounds" />
          </mxGeometry>
        </mxCell>
        <mxCell id="jVkeZ5hO6xtGJMO7U0UU-80" value="发言人的UserId" style="shape=partialRectangle;html=1;whiteSpace=wrap;connectable=0;strokeColor=inherit;overflow=hidden;fillColor=none;top=0;left=0;bottom=0;right=0;pointerEvents=1;" parent="jVkeZ5hO6xtGJMO7U0UU-78" vertex="1">
          <mxGeometry x="200" width="140" height="70" as="geometry">
            <mxRectangle width="140" height="70" as="alternateBounds" />
          </mxGeometry>
        </mxCell>
        <mxCell id="jVkeZ5hO6xtGJMO7U0UU-81" value="最新有效的评论/发言的action_id" style="shape=partialRectangle;html=1;whiteSpace=wrap;connectable=0;strokeColor=inherit;overflow=hidden;fillColor=none;top=0;left=0;bottom=0;right=0;pointerEvents=1;" parent="jVkeZ5hO6xtGJMO7U0UU-78" vertex="1">
          <mxGeometry x="340" width="190" height="70" as="geometry">
            <mxRectangle width="190" height="70" as="alternateBounds" />
          </mxGeometry>
        </mxCell>
        <mxCell id="jVkeZ5hO6xtGJMO7U0UU-82" value="comment_id" style="shape=partialRectangle;html=1;whiteSpace=wrap;connectable=0;strokeColor=inherit;overflow=hidden;fillColor=none;top=0;left=0;bottom=0;right=0;pointerEvents=1;" parent="jVkeZ5hO6xtGJMO7U0UU-78" vertex="1">
          <mxGeometry x="530" width="180" height="70" as="geometry">
            <mxRectangle width="180" height="70" as="alternateBounds" />
          </mxGeometry>
        </mxCell>
        <mxCell id="jVkeZ5hO6xtGJMO7U0UU-59" value="" style="shape=tableRow;horizontal=0;startSize=0;swimlaneHead=0;swimlaneBody=0;strokeColor=inherit;top=0;left=0;bottom=0;right=0;collapsible=0;dropTarget=0;fillColor=none;points=[[0,0.5],[1,0.5]];portConstraint=eastwest;" parent="jVkeZ5hO6xtGJMO7U0UU-37" vertex="1">
          <mxGeometry y="309" width="710" height="40" as="geometry" />
        </mxCell>
        <mxCell id="jVkeZ5hO6xtGJMO7U0UU-60" value="LIKE&lt;div&gt;点赞&lt;/div&gt;" style="shape=partialRectangle;html=1;whiteSpace=wrap;connectable=0;strokeColor=inherit;overflow=hidden;fillColor=none;top=0;left=0;bottom=0;right=0;pointerEvents=1;" parent="jVkeZ5hO6xtGJMO7U0UU-59" vertex="1">
          <mxGeometry width="200" height="40" as="geometry">
            <mxRectangle width="200" height="40" as="alternateBounds" />
          </mxGeometry>
        </mxCell>
        <mxCell id="jVkeZ5hO6xtGJMO7U0UU-61" value="点赞人的userID" style="shape=partialRectangle;html=1;whiteSpace=wrap;connectable=0;strokeColor=inherit;overflow=hidden;fillColor=none;top=0;left=0;bottom=0;right=0;pointerEvents=1;" parent="jVkeZ5hO6xtGJMO7U0UU-59" vertex="1">
          <mxGeometry x="200" width="140" height="40" as="geometry">
            <mxRectangle width="140" height="40" as="alternateBounds" />
          </mxGeometry>
        </mxCell>
        <mxCell id="jVkeZ5hO6xtGJMO7U0UU-62" value="点赞的action_id" style="shape=partialRectangle;html=1;whiteSpace=wrap;connectable=0;strokeColor=inherit;overflow=hidden;fillColor=none;top=0;left=0;bottom=0;right=0;pointerEvents=1;" parent="jVkeZ5hO6xtGJMO7U0UU-59" vertex="1">
          <mxGeometry x="340" width="190" height="40" as="geometry">
            <mxRectangle width="190" height="40" as="alternateBounds" />
          </mxGeometry>
        </mxCell>
        <mxCell id="jVkeZ5hO6xtGJMO7U0UU-63" value="点赞的次数" style="shape=partialRectangle;html=1;whiteSpace=wrap;connectable=0;strokeColor=inherit;overflow=hidden;fillColor=none;top=0;left=0;bottom=0;right=0;pointerEvents=1;" parent="jVkeZ5hO6xtGJMO7U0UU-59" vertex="1">
          <mxGeometry x="530" width="180" height="40" as="geometry">
            <mxRectangle width="180" height="40" as="alternateBounds" />
          </mxGeometry>
        </mxCell>
        <mxCell id="neviRaYVwyy8WAOLnTko-19" style="shape=tableRow;horizontal=0;startSize=0;swimlaneHead=0;swimlaneBody=0;strokeColor=inherit;top=0;left=0;bottom=0;right=0;collapsible=0;dropTarget=0;fillColor=none;points=[[0,0.5],[1,0.5]];portConstraint=eastwest;" parent="jVkeZ5hO6xtGJMO7U0UU-37" vertex="1">
          <mxGeometry y="349" width="710" height="40" as="geometry" />
        </mxCell>
        <mxCell id="neviRaYVwyy8WAOLnTko-20" value="COLLECT&lt;div&gt;收藏&lt;/div&gt;" style="shape=partialRectangle;html=1;whiteSpace=wrap;connectable=0;strokeColor=inherit;overflow=hidden;fillColor=none;top=0;left=0;bottom=0;right=0;pointerEvents=1;" parent="neviRaYVwyy8WAOLnTko-19" vertex="1">
          <mxGeometry width="200" height="40" as="geometry">
            <mxRectangle width="200" height="40" as="alternateBounds" />
          </mxGeometry>
        </mxCell>
        <mxCell id="neviRaYVwyy8WAOLnTko-21" value="userID" style="shape=partialRectangle;html=1;whiteSpace=wrap;connectable=0;strokeColor=inherit;overflow=hidden;fillColor=none;top=0;left=0;bottom=0;right=0;pointerEvents=1;" parent="neviRaYVwyy8WAOLnTko-19" vertex="1">
          <mxGeometry x="200" width="140" height="40" as="geometry">
            <mxRectangle width="140" height="40" as="alternateBounds" />
          </mxGeometry>
        </mxCell>
        <mxCell id="neviRaYVwyy8WAOLnTko-22" value="target_action_id" style="shape=partialRectangle;html=1;whiteSpace=wrap;connectable=0;strokeColor=inherit;overflow=hidden;fillColor=none;top=0;left=0;bottom=0;right=0;pointerEvents=1;" parent="neviRaYVwyy8WAOLnTko-19" vertex="1">
          <mxGeometry x="340" width="190" height="40" as="geometry">
            <mxRectangle width="190" height="40" as="alternateBounds" />
          </mxGeometry>
        </mxCell>
        <mxCell id="neviRaYVwyy8WAOLnTko-23" value="0表示收藏板块&lt;div&gt;否则thread_id&lt;/div&gt;" style="shape=partialRectangle;html=1;whiteSpace=wrap;connectable=0;strokeColor=inherit;overflow=hidden;fillColor=none;top=0;left=0;bottom=0;right=0;pointerEvents=1;" parent="neviRaYVwyy8WAOLnTko-19" vertex="1">
          <mxGeometry x="530" width="180" height="40" as="geometry">
            <mxRectangle width="180" height="40" as="alternateBounds" />
          </mxGeometry>
        </mxCell>
        <mxCell id="neviRaYVwyy8WAOLnTko-30" style="shape=tableRow;horizontal=0;startSize=0;swimlaneHead=0;swimlaneBody=0;strokeColor=inherit;top=0;left=0;bottom=0;right=0;collapsible=0;dropTarget=0;fillColor=none;points=[[0,0.5],[1,0.5]];portConstraint=eastwest;" parent="jVkeZ5hO6xtGJMO7U0UU-37" vertex="1">
          <mxGeometry y="389" width="710" height="40" as="geometry" />
        </mxCell>
        <mxCell id="neviRaYVwyy8WAOLnTko-31" value="THREAD&lt;div&gt;帖子/评论的集合与板块挂钩&lt;/div&gt;" style="shape=partialRectangle;html=1;whiteSpace=wrap;connectable=0;strokeColor=inherit;overflow=hidden;fillColor=none;top=0;left=0;bottom=0;right=0;pointerEvents=1;" parent="neviRaYVwyy8WAOLnTko-30" vertex="1">
          <mxGeometry width="200" height="40" as="geometry">
            <mxRectangle width="200" height="40" as="alternateBounds" />
          </mxGeometry>
        </mxCell>
        <mxCell id="neviRaYVwyy8WAOLnTko-32" value="user_id版主id" style="shape=partialRectangle;html=1;whiteSpace=wrap;connectable=0;strokeColor=inherit;overflow=hidden;fillColor=none;top=0;left=0;bottom=0;right=0;pointerEvents=1;" parent="neviRaYVwyy8WAOLnTko-30" vertex="1">
          <mxGeometry x="200" width="140" height="40" as="geometry">
            <mxRectangle width="140" height="40" as="alternateBounds" />
          </mxGeometry>
        </mxCell>
        <mxCell id="neviRaYVwyy8WAOLnTko-33" value="target_action_id/community_id" style="shape=partialRectangle;html=1;whiteSpace=wrap;connectable=0;strokeColor=inherit;overflow=hidden;fillColor=none;top=0;left=0;bottom=0;right=0;pointerEvents=1;" parent="neviRaYVwyy8WAOLnTko-30" vertex="1">
          <mxGeometry x="340" width="190" height="40" as="geometry">
            <mxRectangle width="190" height="40" as="alternateBounds" />
          </mxGeometry>
        </mxCell>
        <mxCell id="neviRaYVwyy8WAOLnTko-34" value="thread_id" style="shape=partialRectangle;html=1;whiteSpace=wrap;connectable=0;strokeColor=inherit;overflow=hidden;fillColor=none;top=0;left=0;bottom=0;right=0;pointerEvents=1;" parent="neviRaYVwyy8WAOLnTko-30" vertex="1">
          <mxGeometry x="530" width="180" height="40" as="geometry">
            <mxRectangle width="180" height="40" as="alternateBounds" />
          </mxGeometry>
        </mxCell>
        <mxCell id="jVkeZ5hO6xtGJMO7U0UU-66" value="" style="shape=tableRow;horizontal=0;startSize=0;swimlaneHead=0;swimlaneBody=0;strokeColor=inherit;top=0;left=0;bottom=0;right=0;collapsible=0;dropTarget=0;fillColor=none;points=[[0,0.5],[1,0.5]];portConstraint=eastwest;" parent="jVkeZ5hO6xtGJMO7U0UU-37" vertex="1">
          <mxGeometry y="429" width="710" height="40" as="geometry" />
        </mxCell>
        <mxCell id="jVkeZ5hO6xtGJMO7U0UU-67" value="&lt;div&gt;view&lt;/div&gt;&lt;div&gt;浏览&lt;/div&gt;" style="shape=partialRectangle;html=1;whiteSpace=wrap;connectable=0;strokeColor=inherit;overflow=hidden;fillColor=none;top=0;left=0;bottom=0;right=0;pointerEvents=1;" parent="jVkeZ5hO6xtGJMO7U0UU-66" vertex="1">
          <mxGeometry width="200" height="40" as="geometry">
            <mxRectangle width="200" height="40" as="alternateBounds" />
          </mxGeometry>
        </mxCell>
        <mxCell id="jVkeZ5hO6xtGJMO7U0UU-68" value="userID" style="shape=partialRectangle;html=1;whiteSpace=wrap;connectable=0;strokeColor=inherit;overflow=hidden;fillColor=none;top=0;left=0;bottom=0;right=0;pointerEvents=1;" parent="jVkeZ5hO6xtGJMO7U0UU-66" vertex="1">
          <mxGeometry x="200" width="140" height="40" as="geometry">
            <mxRectangle width="140" height="40" as="alternateBounds" />
          </mxGeometry>
        </mxCell>
        <mxCell id="jVkeZ5hO6xtGJMO7U0UU-69" value="action_id" style="shape=partialRectangle;html=1;whiteSpace=wrap;connectable=0;strokeColor=inherit;overflow=hidden;fillColor=none;top=0;left=0;bottom=0;right=0;pointerEvents=1;" parent="jVkeZ5hO6xtGJMO7U0UU-66" vertex="1">
          <mxGeometry x="340" width="190" height="40" as="geometry">
            <mxRectangle width="190" height="40" as="alternateBounds" />
          </mxGeometry>
        </mxCell>
        <mxCell id="jVkeZ5hO6xtGJMO7U0UU-70" value="" style="shape=partialRectangle;html=1;whiteSpace=wrap;connectable=0;strokeColor=inherit;overflow=hidden;fillColor=none;top=0;left=0;bottom=0;right=0;pointerEvents=1;" parent="jVkeZ5hO6xtGJMO7U0UU-66" vertex="1">
          <mxGeometry x="530" width="180" height="40" as="geometry">
            <mxRectangle width="180" height="40" as="alternateBounds" />
          </mxGeometry>
        </mxCell>
        <mxCell id="jVkeZ5hO6xtGJMO7U0UU-91" value="Thread" style="swimlane;fontStyle=0;childLayout=stackLayout;horizontal=1;startSize=30;horizontalStack=0;resizeParent=1;resizeParentMax=0;resizeLast=0;collapsible=1;marginBottom=0;whiteSpace=wrap;html=1;" parent="1" vertex="1">
          <mxGeometry x="-1840" y="860" width="140" height="180" as="geometry" />
        </mxCell>
        <mxCell id="jVkeZ5hO6xtGJMO7U0UU-92" value="id = thread_action_id" style="text;strokeColor=none;fillColor=none;align=left;verticalAlign=middle;spacingLeft=4;spacingRight=4;overflow=hidden;points=[[0,0.5],[1,0.5]];portConstraint=eastwest;rotatable=0;whiteSpace=wrap;html=1;" parent="jVkeZ5hO6xtGJMO7U0UU-91" vertex="1">
          <mxGeometry y="30" width="140" height="30" as="geometry" />
        </mxCell>
        <mxCell id="jVkeZ5hO6xtGJMO7U0UU-99" value="creator_id 板块的或者个人的id" style="text;strokeColor=none;fillColor=none;align=left;verticalAlign=middle;spacingLeft=4;spacingRight=4;overflow=hidden;points=[[0,0.5],[1,0.5]];portConstraint=eastwest;rotatable=0;whiteSpace=wrap;html=1;" parent="jVkeZ5hO6xtGJMO7U0UU-91" vertex="1">
          <mxGeometry y="60" width="140" height="30" as="geometry" />
        </mxCell>
        <mxCell id="jVkeZ5hO6xtGJMO7U0UU-93" value="title&amp;nbsp;" style="text;strokeColor=none;fillColor=none;align=left;verticalAlign=middle;spacingLeft=4;spacingRight=4;overflow=hidden;points=[[0,0.5],[1,0.5]];portConstraint=eastwest;rotatable=0;whiteSpace=wrap;html=1;" parent="jVkeZ5hO6xtGJMO7U0UU-91" vertex="1">
          <mxGeometry y="90" width="140" height="30" as="geometry" />
        </mxCell>
        <mxCell id="neviRaYVwyy8WAOLnTko-17" value="introduction" style="text;strokeColor=none;fillColor=none;align=left;verticalAlign=middle;spacingLeft=4;spacingRight=4;overflow=hidden;points=[[0,0.5],[1,0.5]];portConstraint=eastwest;rotatable=0;whiteSpace=wrap;html=1;" parent="jVkeZ5hO6xtGJMO7U0UU-91" vertex="1">
          <mxGeometry y="120" width="140" height="30" as="geometry" />
        </mxCell>
        <mxCell id="neviRaYVwyy8WAOLnTko-16" value="avatar" style="text;strokeColor=none;fillColor=none;align=left;verticalAlign=middle;spacingLeft=4;spacingRight=4;overflow=hidden;points=[[0,0.5],[1,0.5]];portConstraint=eastwest;rotatable=0;whiteSpace=wrap;html=1;" parent="jVkeZ5hO6xtGJMO7U0UU-91" vertex="1">
          <mxGeometry y="150" width="140" height="30" as="geometry" />
        </mxCell>
        <mxCell id="_eSrgJDO7bjos9VQj2bo-18" style="edgeStyle=none;curved=1;rounded=0;orthogonalLoop=1;jettySize=auto;html=1;fontSize=12;startSize=8;endSize=8;" parent="1" source="jVkeZ5hO6xtGJMO7U0UU-100" target="jVkeZ5hO6xtGJMO7U0UU-38" edge="1">
          <mxGeometry relative="1" as="geometry" />
        </mxCell>
        <mxCell id="jVkeZ5hO6xtGJMO7U0UU-100" value="action行为" style="swimlane;fontStyle=0;childLayout=stackLayout;horizontal=1;startSize=30;horizontalStack=0;resizeParent=1;resizeParentMax=0;resizeLast=0;collapsible=1;marginBottom=0;whiteSpace=wrap;html=1;" parent="1" vertex="1">
          <mxGeometry x="-1105" y="220" width="140" height="210" as="geometry" />
        </mxCell>
        <mxCell id="jVkeZ5hO6xtGJMO7U0UU-101" value="id" style="text;strokeColor=none;fillColor=none;align=left;verticalAlign=middle;spacingLeft=4;spacingRight=4;overflow=hidden;points=[[0,0.5],[1,0.5]];portConstraint=eastwest;rotatable=0;whiteSpace=wrap;html=1;" parent="jVkeZ5hO6xtGJMO7U0UU-100" vertex="1">
          <mxGeometry y="30" width="140" height="30" as="geometry" />
        </mxCell>
        <mxCell id="jVkeZ5hO6xtGJMO7U0UU-102" value="user_id" style="text;strokeColor=none;fillColor=none;align=left;verticalAlign=middle;spacingLeft=4;spacingRight=4;overflow=hidden;points=[[0,0.5],[1,0.5]];portConstraint=eastwest;rotatable=0;whiteSpace=wrap;html=1;" parent="jVkeZ5hO6xtGJMO7U0UU-100" vertex="1">
          <mxGeometry y="60" width="140" height="30" as="geometry" />
        </mxCell>
        <mxCell id="jVkeZ5hO6xtGJMO7U0UU-103" value="target_id" style="text;strokeColor=none;fillColor=none;align=left;verticalAlign=middle;spacingLeft=4;spacingRight=4;overflow=hidden;points=[[0,0.5],[1,0.5]];portConstraint=eastwest;rotatable=0;whiteSpace=wrap;html=1;" parent="jVkeZ5hO6xtGJMO7U0UU-100" vertex="1">
          <mxGeometry y="90" width="140" height="30" as="geometry" />
        </mxCell>
        <mxCell id="jVkeZ5hO6xtGJMO7U0UU-108" value="type" style="text;strokeColor=none;fillColor=none;align=left;verticalAlign=middle;spacingLeft=4;spacingRight=4;overflow=hidden;points=[[0,0.5],[1,0.5]];portConstraint=eastwest;rotatable=0;whiteSpace=wrap;html=1;" parent="jVkeZ5hO6xtGJMO7U0UU-100" vertex="1">
          <mxGeometry y="120" width="140" height="30" as="geometry" />
        </mxCell>
        <mxCell id="jVkeZ5hO6xtGJMO7U0UU-107" value="contend_id" style="text;strokeColor=none;fillColor=none;align=left;verticalAlign=middle;spacingLeft=4;spacingRight=4;overflow=hidden;points=[[0,0.5],[1,0.5]];portConstraint=eastwest;rotatable=0;whiteSpace=wrap;html=1;" parent="jVkeZ5hO6xtGJMO7U0UU-100" vertex="1">
          <mxGeometry y="150" width="140" height="30" as="geometry" />
        </mxCell>
        <mxCell id="jVkeZ5hO6xtGJMO7U0UU-106" value="time" style="text;strokeColor=none;fillColor=none;align=left;verticalAlign=middle;spacingLeft=4;spacingRight=4;overflow=hidden;points=[[0,0.5],[1,0.5]];portConstraint=eastwest;rotatable=0;whiteSpace=wrap;html=1;" parent="jVkeZ5hO6xtGJMO7U0UU-100" vertex="1">
          <mxGeometry y="180" width="140" height="30" as="geometry" />
        </mxCell>
        <mxCell id="jVkeZ5hO6xtGJMO7U0UU-110" value="comment" style="swimlane;fontStyle=0;childLayout=stackLayout;horizontal=1;startSize=30;horizontalStack=0;resizeParent=1;resizeParentMax=0;resizeLast=0;collapsible=1;marginBottom=0;whiteSpace=wrap;html=1;" parent="1" vertex="1">
          <mxGeometry x="-1840" y="620" width="140" height="210" as="geometry" />
        </mxCell>
        <mxCell id="jVkeZ5hO6xtGJMO7U0UU-111" value="id" style="text;strokeColor=none;fillColor=none;align=left;verticalAlign=middle;spacingLeft=4;spacingRight=4;overflow=hidden;points=[[0,0.5],[1,0.5]];portConstraint=eastwest;rotatable=0;whiteSpace=wrap;html=1;" parent="jVkeZ5hO6xtGJMO7U0UU-110" vertex="1">
          <mxGeometry y="30" width="140" height="30" as="geometry" />
        </mxCell>
        <mxCell id="jVkeZ5hO6xtGJMO7U0UU-112" value="content" style="text;strokeColor=none;fillColor=none;align=left;verticalAlign=middle;spacingLeft=4;spacingRight=4;overflow=hidden;points=[[0,0.5],[1,0.5]];portConstraint=eastwest;rotatable=0;whiteSpace=wrap;html=1;" parent="jVkeZ5hO6xtGJMO7U0UU-110" vertex="1">
          <mxGeometry y="60" width="140" height="30" as="geometry" />
        </mxCell>
        <mxCell id="jVkeZ5hO6xtGJMO7U0UU-113" value="likes_count" style="text;strokeColor=none;fillColor=none;align=left;verticalAlign=middle;spacingLeft=4;spacingRight=4;overflow=hidden;points=[[0,0.5],[1,0.5]];portConstraint=eastwest;rotatable=0;whiteSpace=wrap;html=1;" parent="jVkeZ5hO6xtGJMO7U0UU-110" vertex="1">
          <mxGeometry y="90" width="140" height="30" as="geometry" />
        </mxCell>
        <mxCell id="jVkeZ5hO6xtGJMO7U0UU-116" value="comments_count" style="text;strokeColor=none;fillColor=none;align=left;verticalAlign=middle;spacingLeft=4;spacingRight=4;overflow=hidden;points=[[0,0.5],[1,0.5]];portConstraint=eastwest;rotatable=0;whiteSpace=wrap;html=1;" parent="jVkeZ5hO6xtGJMO7U0UU-110" vertex="1">
          <mxGeometry y="120" width="140" height="30" as="geometry" />
        </mxCell>
        <mxCell id="jVkeZ5hO6xtGJMO7U0UU-115" value="collections_count" style="text;strokeColor=none;fillColor=none;align=left;verticalAlign=middle;spacingLeft=4;spacingRight=4;overflow=hidden;points=[[0,0.5],[1,0.5]];portConstraint=eastwest;rotatable=0;whiteSpace=wrap;html=1;" parent="jVkeZ5hO6xtGJMO7U0UU-110" vertex="1">
          <mxGeometry y="150" width="140" height="30" as="geometry" />
        </mxCell>
        <mxCell id="jVkeZ5hO6xtGJMO7U0UU-114" value="pull_count" style="text;strokeColor=none;fillColor=none;align=left;verticalAlign=middle;spacingLeft=4;spacingRight=4;overflow=hidden;points=[[0,0.5],[1,0.5]];portConstraint=eastwest;rotatable=0;whiteSpace=wrap;html=1;" parent="jVkeZ5hO6xtGJMO7U0UU-110" vertex="1">
          <mxGeometry y="180" width="140" height="30" as="geometry" />
        </mxCell>
        <mxCell id="jVkeZ5hO6xtGJMO7U0UU-117" style="edgeStyle=none;curved=1;rounded=0;orthogonalLoop=1;jettySize=auto;html=1;fontSize=12;startSize=8;endSize=8;exitX=0;exitY=0.5;exitDx=0;exitDy=0;" parent="1" source="jVkeZ5hO6xtGJMO7U0UU-52" target="jVkeZ5hO6xtGJMO7U0UU-110" edge="1">
          <mxGeometry relative="1" as="geometry" />
        </mxCell>
        <mxCell id="jVkeZ5hO6xtGJMO7U0UU-118" style="edgeStyle=none;curved=1;rounded=0;orthogonalLoop=1;jettySize=auto;html=1;fontSize=12;startSize=8;endSize=8;exitX=0;exitY=0.5;exitDx=0;exitDy=0;" parent="1" source="neviRaYVwyy8WAOLnTko-19" target="jVkeZ5hO6xtGJMO7U0UU-91" edge="1">
          <mxGeometry relative="1" as="geometry">
            <mxPoint x="-1470" y="873.3333333333333" as="targetPoint" />
          </mxGeometry>
        </mxCell>
        <mxCell id="_eSrgJDO7bjos9VQj2bo-1" value="user" style="swimlane;fontStyle=0;childLayout=stackLayout;horizontal=1;startSize=30;horizontalStack=0;resizeParent=1;resizeParentMax=0;resizeLast=0;collapsible=1;marginBottom=0;whiteSpace=wrap;html=1;" parent="1" vertex="1">
          <mxGeometry x="-290" y="160" width="140" height="180" as="geometry" />
        </mxCell>
        <mxCell id="_eSrgJDO7bjos9VQj2bo-2" value="id" style="text;strokeColor=none;fillColor=none;align=left;verticalAlign=middle;spacingLeft=4;spacingRight=4;overflow=hidden;points=[[0,0.5],[1,0.5]];portConstraint=eastwest;rotatable=0;whiteSpace=wrap;html=1;" parent="_eSrgJDO7bjos9VQj2bo-1" vertex="1">
          <mxGeometry y="30" width="140" height="30" as="geometry" />
        </mxCell>
        <mxCell id="_eSrgJDO7bjos9VQj2bo-6" value="account 登录用的账号" style="text;strokeColor=none;fillColor=none;align=left;verticalAlign=middle;spacingLeft=4;spacingRight=4;overflow=hidden;points=[[0,0.5],[1,0.5]];portConstraint=eastwest;rotatable=0;whiteSpace=wrap;html=1;" parent="_eSrgJDO7bjos9VQj2bo-1" vertex="1">
          <mxGeometry y="60" width="140" height="30" as="geometry" />
        </mxCell>
        <mxCell id="_eSrgJDO7bjos9VQj2bo-5" value="password&amp;nbsp;" style="text;strokeColor=none;fillColor=none;align=left;verticalAlign=middle;spacingLeft=4;spacingRight=4;overflow=hidden;points=[[0,0.5],[1,0.5]];portConstraint=eastwest;rotatable=0;whiteSpace=wrap;html=1;" parent="_eSrgJDO7bjos9VQj2bo-1" vertex="1">
          <mxGeometry y="90" width="140" height="30" as="geometry" />
        </mxCell>
        <mxCell id="_eSrgJDO7bjos9VQj2bo-23" value="state" style="text;strokeColor=none;fillColor=none;align=left;verticalAlign=middle;spacingLeft=4;spacingRight=4;overflow=hidden;points=[[0,0.5],[1,0.5]];portConstraint=eastwest;rotatable=0;whiteSpace=wrap;html=1;" parent="_eSrgJDO7bjos9VQj2bo-1" vertex="1">
          <mxGeometry y="120" width="140" height="30" as="geometry" />
        </mxCell>
        <mxCell id="_eSrgJDO7bjos9VQj2bo-24" value="expiration" style="text;strokeColor=none;fillColor=none;align=left;verticalAlign=middle;spacingLeft=4;spacingRight=4;overflow=hidden;points=[[0,0.5],[1,0.5]];portConstraint=eastwest;rotatable=0;whiteSpace=wrap;html=1;" parent="_eSrgJDO7bjos9VQj2bo-1" vertex="1">
          <mxGeometry y="150" width="140" height="30" as="geometry" />
        </mxCell>
        <mxCell id="_eSrgJDO7bjos9VQj2bo-8" value="user_role" style="swimlane;fontStyle=0;childLayout=stackLayout;horizontal=1;startSize=30;horizontalStack=0;resizeParent=1;resizeParentMax=0;resizeLast=0;collapsible=1;marginBottom=0;whiteSpace=wrap;html=1;" parent="1" vertex="1">
          <mxGeometry x="-550" y="250" width="140" height="90" as="geometry" />
        </mxCell>
        <mxCell id="_eSrgJDO7bjos9VQj2bo-9" value="user_id" style="text;strokeColor=none;fillColor=none;align=left;verticalAlign=middle;spacingLeft=4;spacingRight=4;overflow=hidden;points=[[0,0.5],[1,0.5]];portConstraint=eastwest;rotatable=0;whiteSpace=wrap;html=1;" parent="_eSrgJDO7bjos9VQj2bo-8" vertex="1">
          <mxGeometry y="30" width="140" height="30" as="geometry" />
        </mxCell>
        <mxCell id="_eSrgJDO7bjos9VQj2bo-10" value="role_id" style="text;strokeColor=none;fillColor=none;align=left;verticalAlign=middle;spacingLeft=4;spacingRight=4;overflow=hidden;points=[[0,0.5],[1,0.5]];portConstraint=eastwest;rotatable=0;whiteSpace=wrap;html=1;" parent="_eSrgJDO7bjos9VQj2bo-8" vertex="1">
          <mxGeometry y="60" width="140" height="30" as="geometry" />
        </mxCell>
        <mxCell id="_eSrgJDO7bjos9VQj2bo-12" style="edgeStyle=none;curved=1;rounded=0;orthogonalLoop=1;jettySize=auto;html=1;exitX=1;exitY=0.5;exitDx=0;exitDy=0;fontSize=12;startSize=8;endSize=8;" parent="1" source="_eSrgJDO7bjos9VQj2bo-9" target="_eSrgJDO7bjos9VQj2bo-1" edge="1">
          <mxGeometry relative="1" as="geometry" />
        </mxCell>
        <mxCell id="_eSrgJDO7bjos9VQj2bo-13" value="role" style="swimlane;fontStyle=0;childLayout=stackLayout;horizontal=1;startSize=30;horizontalStack=0;resizeParent=1;resizeParentMax=0;resizeLast=0;collapsible=1;marginBottom=0;whiteSpace=wrap;html=1;" parent="1" vertex="1">
          <mxGeometry x="-300" y="460" width="140" height="90" as="geometry">
            <mxRectangle x="-300" y="460" width="60" height="30" as="alternateBounds" />
          </mxGeometry>
        </mxCell>
        <mxCell id="_eSrgJDO7bjos9VQj2bo-14" value="id" style="text;strokeColor=none;fillColor=none;align=left;verticalAlign=middle;spacingLeft=4;spacingRight=4;overflow=hidden;points=[[0,0.5],[1,0.5]];portConstraint=eastwest;rotatable=0;whiteSpace=wrap;html=1;" parent="_eSrgJDO7bjos9VQj2bo-13" vertex="1">
          <mxGeometry y="30" width="140" height="30" as="geometry" />
        </mxCell>
        <mxCell id="_eSrgJDO7bjos9VQj2bo-15" value="name" style="text;strokeColor=none;fillColor=none;align=left;verticalAlign=middle;spacingLeft=4;spacingRight=4;overflow=hidden;points=[[0,0.5],[1,0.5]];portConstraint=eastwest;rotatable=0;whiteSpace=wrap;html=1;" parent="_eSrgJDO7bjos9VQj2bo-13" vertex="1">
          <mxGeometry y="60" width="140" height="30" as="geometry" />
        </mxCell>
        <mxCell id="_eSrgJDO7bjos9VQj2bo-17" style="edgeStyle=none;curved=1;rounded=0;orthogonalLoop=1;jettySize=auto;html=1;exitX=1;exitY=0.5;exitDx=0;exitDy=0;fontSize=12;startSize=8;endSize=8;" parent="1" source="_eSrgJDO7bjos9VQj2bo-10" target="_eSrgJDO7bjos9VQj2bo-13" edge="1">
          <mxGeometry relative="1" as="geometry" />
        </mxCell>
        <mxCell id="_eSrgJDO7bjos9VQj2bo-19" value="profile" style="swimlane;fontStyle=0;childLayout=stackLayout;horizontal=1;startSize=30;horizontalStack=0;resizeParent=1;resizeParentMax=0;resizeLast=0;collapsible=1;marginBottom=0;whiteSpace=wrap;html=1;" parent="1" vertex="1">
          <mxGeometry x="-80" y="-40" width="140" height="420" as="geometry" />
        </mxCell>
        <mxCell id="_eSrgJDO7bjos9VQj2bo-20" value="user_id" style="text;strokeColor=none;fillColor=none;align=left;verticalAlign=middle;spacingLeft=4;spacingRight=4;overflow=hidden;points=[[0,0.5],[1,0.5]];portConstraint=eastwest;rotatable=0;whiteSpace=wrap;html=1;" parent="_eSrgJDO7bjos9VQj2bo-19" vertex="1">
          <mxGeometry y="30" width="140" height="30" as="geometry" />
        </mxCell>
        <mxCell id="_eSrgJDO7bjos9VQj2bo-21" value="nickname" style="text;strokeColor=none;fillColor=none;align=left;verticalAlign=middle;spacingLeft=4;spacingRight=4;overflow=hidden;points=[[0,0.5],[1,0.5]];portConstraint=eastwest;rotatable=0;whiteSpace=wrap;html=1;" parent="_eSrgJDO7bjos9VQj2bo-19" vertex="1">
          <mxGeometry y="60" width="140" height="30" as="geometry" />
        </mxCell>
        <mxCell id="neviRaYVwyy8WAOLnTko-6" value="avatar" style="text;strokeColor=none;fillColor=none;align=left;verticalAlign=middle;spacingLeft=4;spacingRight=4;overflow=hidden;points=[[0,0.5],[1,0.5]];portConstraint=eastwest;rotatable=0;whiteSpace=wrap;html=1;" parent="_eSrgJDO7bjos9VQj2bo-19" vertex="1">
          <mxGeometry y="90" width="140" height="30" as="geometry" />
        </mxCell>
        <mxCell id="neviRaYVwyy8WAOLnTko-35" value="phone" style="text;strokeColor=none;fillColor=none;align=left;verticalAlign=middle;spacingLeft=4;spacingRight=4;overflow=hidden;points=[[0,0.5],[1,0.5]];portConstraint=eastwest;rotatable=0;whiteSpace=wrap;html=1;" parent="_eSrgJDO7bjos9VQj2bo-19" vertex="1">
          <mxGeometry y="120" width="140" height="30" as="geometry" />
        </mxCell>
        <mxCell id="neviRaYVwyy8WAOLnTko-36" value="email" style="text;strokeColor=none;fillColor=none;align=left;verticalAlign=middle;spacingLeft=4;spacingRight=4;overflow=hidden;points=[[0,0.5],[1,0.5]];portConstraint=eastwest;rotatable=0;whiteSpace=wrap;html=1;" parent="_eSrgJDO7bjos9VQj2bo-19" vertex="1">
          <mxGeometry y="150" width="140" height="30" as="geometry" />
        </mxCell>
        <mxCell id="neviRaYVwyy8WAOLnTko-5" value="gender" style="text;strokeColor=none;fillColor=none;align=left;verticalAlign=middle;spacingLeft=4;spacingRight=4;overflow=hidden;points=[[0,0.5],[1,0.5]];portConstraint=eastwest;rotatable=0;whiteSpace=wrap;html=1;" parent="_eSrgJDO7bjos9VQj2bo-19" vertex="1">
          <mxGeometry y="180" width="140" height="30" as="geometry" />
        </mxCell>
        <mxCell id="neviRaYVwyy8WAOLnTko-37" value="birthday" style="text;strokeColor=none;fillColor=none;align=left;verticalAlign=middle;spacingLeft=4;spacingRight=4;overflow=hidden;points=[[0,0.5],[1,0.5]];portConstraint=eastwest;rotatable=0;whiteSpace=wrap;html=1;" parent="_eSrgJDO7bjos9VQj2bo-19" vertex="1">
          <mxGeometry y="210" width="140" height="30" as="geometry" />
        </mxCell>
        <mxCell id="_eSrgJDO7bjos9VQj2bo-22" value="country" style="text;strokeColor=none;fillColor=none;align=left;verticalAlign=middle;spacingLeft=4;spacingRight=4;overflow=hidden;points=[[0,0.5],[1,0.5]];portConstraint=eastwest;rotatable=0;whiteSpace=wrap;html=1;" parent="_eSrgJDO7bjos9VQj2bo-19" vertex="1">
          <mxGeometry y="240" width="140" height="30" as="geometry" />
        </mxCell>
        <mxCell id="neviRaYVwyy8WAOLnTko-1" value="address1国家下面的行政划分,在中国就是省" style="text;strokeColor=none;fillColor=none;align=left;verticalAlign=middle;spacingLeft=4;spacingRight=4;overflow=hidden;points=[[0,0.5],[1,0.5]];portConstraint=eastwest;rotatable=0;whiteSpace=wrap;html=1;" parent="_eSrgJDO7bjos9VQj2bo-19" vertex="1">
          <mxGeometry y="270" width="140" height="30" as="geometry" />
        </mxCell>
        <mxCell id="neviRaYVwyy8WAOLnTko-2" value="address2" style="text;strokeColor=none;fillColor=none;align=left;verticalAlign=middle;spacingLeft=4;spacingRight=4;overflow=hidden;points=[[0,0.5],[1,0.5]];portConstraint=eastwest;rotatable=0;whiteSpace=wrap;html=1;" parent="_eSrgJDO7bjos9VQj2bo-19" vertex="1">
          <mxGeometry y="300" width="140" height="30" as="geometry" />
        </mxCell>
        <mxCell id="neviRaYVwyy8WAOLnTko-4" value="address3" style="text;strokeColor=none;fillColor=none;align=left;verticalAlign=middle;spacingLeft=4;spacingRight=4;overflow=hidden;points=[[0,0.5],[1,0.5]];portConstraint=eastwest;rotatable=0;whiteSpace=wrap;html=1;" parent="_eSrgJDO7bjos9VQj2bo-19" vertex="1">
          <mxGeometry y="330" width="140" height="30" as="geometry" />
        </mxCell>
        <mxCell id="neviRaYVwyy8WAOLnTko-3" value="detail_address" style="text;strokeColor=none;fillColor=none;align=left;verticalAlign=middle;spacingLeft=4;spacingRight=4;overflow=hidden;points=[[0,0.5],[1,0.5]];portConstraint=eastwest;rotatable=0;whiteSpace=wrap;html=1;" parent="_eSrgJDO7bjos9VQj2bo-19" vertex="1">
          <mxGeometry y="360" width="140" height="30" as="geometry" />
        </mxCell>
        <mxCell id="neviRaYVwyy8WAOLnTko-8" value="&lt;div style=&quot;color: rgb(204, 204, 204); background-color: rgb(31, 31, 31); font-family: Consolas, &amp;quot;Courier New&amp;quot;, monospace; font-size: 14px; line-height: 19px; white-space: pre;&quot;&gt;&lt;span style=&quot;color: #ce9178;&quot;&gt;join_date&lt;/span&gt;&lt;/div&gt;" style="text;strokeColor=none;fillColor=none;align=left;verticalAlign=middle;spacingLeft=4;spacingRight=4;overflow=hidden;points=[[0,0.5],[1,0.5]];portConstraint=eastwest;rotatable=0;whiteSpace=wrap;html=1;" parent="_eSrgJDO7bjos9VQj2bo-19" vertex="1">
          <mxGeometry y="390" width="140" height="30" as="geometry" />
        </mxCell>
        <mxCell id="_eSrgJDO7bjos9VQj2bo-44" value="角色列表" style="shape=table;startSize=30;container=1;collapsible=0;childLayout=tableLayout;" parent="1" vertex="1">
          <mxGeometry x="-100" y="530" width="60" height="150" as="geometry" />
        </mxCell>
        <mxCell id="_eSrgJDO7bjos9VQj2bo-45" value="" style="shape=tableRow;horizontal=0;startSize=0;swimlaneHead=0;swimlaneBody=0;strokeColor=inherit;top=0;left=0;bottom=0;right=0;collapsible=0;dropTarget=0;fillColor=none;points=[[0,0.5],[1,0.5]];portConstraint=eastwest;" parent="_eSrgJDO7bjos9VQj2bo-44" vertex="1">
          <mxGeometry y="30" width="60" height="40" as="geometry" />
        </mxCell>
        <mxCell id="_eSrgJDO7bjos9VQj2bo-46" value="&lt;div&gt;ADMIN&lt;/div&gt;管理员" style="shape=partialRectangle;html=1;whiteSpace=wrap;connectable=0;strokeColor=inherit;overflow=hidden;fillColor=none;top=0;left=0;bottom=0;right=0;pointerEvents=1;" parent="_eSrgJDO7bjos9VQj2bo-45" vertex="1">
          <mxGeometry width="60" height="40" as="geometry">
            <mxRectangle width="60" height="40" as="alternateBounds" />
          </mxGeometry>
        </mxCell>
        <mxCell id="_eSrgJDO7bjos9VQj2bo-47" value="" style="shape=tableRow;horizontal=0;startSize=0;swimlaneHead=0;swimlaneBody=0;strokeColor=inherit;top=0;left=0;bottom=0;right=0;collapsible=0;dropTarget=0;fillColor=none;points=[[0,0.5],[1,0.5]];portConstraint=eastwest;" parent="_eSrgJDO7bjos9VQj2bo-44" vertex="1">
          <mxGeometry y="70" width="60" height="40" as="geometry" />
        </mxCell>
        <mxCell id="_eSrgJDO7bjos9VQj2bo-48" value="&lt;div&gt;VISITOR&lt;/div&gt;游客" style="shape=partialRectangle;html=1;whiteSpace=wrap;connectable=0;strokeColor=inherit;overflow=hidden;fillColor=none;top=0;left=0;bottom=0;right=0;pointerEvents=1;" parent="_eSrgJDO7bjos9VQj2bo-47" vertex="1">
          <mxGeometry width="60" height="40" as="geometry">
            <mxRectangle width="60" height="40" as="alternateBounds" />
          </mxGeometry>
        </mxCell>
        <mxCell id="_eSrgJDO7bjos9VQj2bo-49" value="" style="shape=tableRow;horizontal=0;startSize=0;swimlaneHead=0;swimlaneBody=0;strokeColor=inherit;top=0;left=0;bottom=0;right=0;collapsible=0;dropTarget=0;fillColor=none;points=[[0,0.5],[1,0.5]];portConstraint=eastwest;" parent="_eSrgJDO7bjos9VQj2bo-44" vertex="1">
          <mxGeometry y="110" width="60" height="40" as="geometry" />
        </mxCell>
        <mxCell id="_eSrgJDO7bjos9VQj2bo-50" value="&lt;div&gt;Moderator&lt;br&gt;&lt;/div&gt;版主" style="shape=partialRectangle;html=1;whiteSpace=wrap;connectable=0;strokeColor=inherit;overflow=hidden;fillColor=none;top=0;left=0;bottom=0;right=0;pointerEvents=1;" parent="_eSrgJDO7bjos9VQj2bo-49" vertex="1">
          <mxGeometry width="60" height="40" as="geometry">
            <mxRectangle width="60" height="40" as="alternateBounds" />
          </mxGeometry>
        </mxCell>
        <mxCell id="_eSrgJDO7bjos9VQj2bo-53" style="edgeStyle=none;curved=1;rounded=0;orthogonalLoop=1;jettySize=auto;html=1;exitX=1;exitY=0.5;exitDx=0;exitDy=0;fontSize=12;startSize=8;endSize=8;" parent="1" source="_eSrgJDO7bjos9VQj2bo-15" target="_eSrgJDO7bjos9VQj2bo-44" edge="1">
          <mxGeometry relative="1" as="geometry" />
        </mxCell>
        <mxCell id="_eSrgJDO7bjos9VQj2bo-54" value="community_content" style="swimlane;fontStyle=0;childLayout=stackLayout;horizontal=1;startSize=30;horizontalStack=0;resizeParent=1;resizeParentMax=0;resizeLast=0;collapsible=1;marginBottom=0;whiteSpace=wrap;html=1;" parent="1" vertex="1">
          <mxGeometry x="-1840" y="410" width="140" height="180" as="geometry" />
        </mxCell>
        <mxCell id="neviRaYVwyy8WAOLnTko-13" value="id = action_id" style="text;strokeColor=none;fillColor=none;align=left;verticalAlign=middle;spacingLeft=4;spacingRight=4;overflow=hidden;points=[[0,0.5],[1,0.5]];portConstraint=eastwest;rotatable=0;whiteSpace=wrap;html=1;" parent="_eSrgJDO7bjos9VQj2bo-54" vertex="1">
          <mxGeometry y="30" width="140" height="30" as="geometry" />
        </mxCell>
        <mxCell id="_eSrgJDO7bjos9VQj2bo-55" value="title" style="text;strokeColor=none;fillColor=none;align=left;verticalAlign=middle;spacingLeft=4;spacingRight=4;overflow=hidden;points=[[0,0.5],[1,0.5]];portConstraint=eastwest;rotatable=0;whiteSpace=wrap;html=1;" parent="_eSrgJDO7bjos9VQj2bo-54" vertex="1">
          <mxGeometry y="60" width="140" height="30" as="geometry" />
        </mxCell>
        <mxCell id="neviRaYVwyy8WAOLnTko-18" value="avatar" style="text;strokeColor=none;fillColor=none;align=left;verticalAlign=middle;spacingLeft=4;spacingRight=4;overflow=hidden;points=[[0,0.5],[1,0.5]];portConstraint=eastwest;rotatable=0;whiteSpace=wrap;html=1;" parent="_eSrgJDO7bjos9VQj2bo-54" vertex="1">
          <mxGeometry y="90" width="140" height="30" as="geometry" />
        </mxCell>
        <mxCell id="_eSrgJDO7bjos9VQj2bo-56" value="introduction" style="text;strokeColor=none;fillColor=none;align=left;verticalAlign=middle;spacingLeft=4;spacingRight=4;overflow=hidden;points=[[0,0.5],[1,0.5]];portConstraint=eastwest;rotatable=0;whiteSpace=wrap;html=1;" parent="_eSrgJDO7bjos9VQj2bo-54" vertex="1">
          <mxGeometry y="120" width="140" height="30" as="geometry" />
        </mxCell>
        <mxCell id="_eSrgJDO7bjos9VQj2bo-57" value="rules" style="text;strokeColor=none;fillColor=none;align=left;verticalAlign=middle;spacingLeft=4;spacingRight=4;overflow=hidden;points=[[0,0.5],[1,0.5]];portConstraint=eastwest;rotatable=0;whiteSpace=wrap;html=1;" parent="_eSrgJDO7bjos9VQj2bo-54" vertex="1">
          <mxGeometry y="150" width="140" height="30" as="geometry" />
        </mxCell>
        <mxCell id="_eSrgJDO7bjos9VQj2bo-58" style="edgeStyle=none;curved=1;rounded=0;orthogonalLoop=1;jettySize=auto;html=1;exitX=0;exitY=0.5;exitDx=0;exitDy=0;fontSize=12;startSize=8;endSize=8;" parent="1" source="jVkeZ5hO6xtGJMO7U0UU-45" target="_eSrgJDO7bjos9VQj2bo-54" edge="1">
          <mxGeometry relative="1" as="geometry" />
        </mxCell>
        <mxCell id="_eSrgJDO7bjos9VQj2bo-59" style="edgeStyle=none;curved=1;rounded=0;orthogonalLoop=1;jettySize=auto;html=1;exitX=0;exitY=0.5;exitDx=0;exitDy=0;fontSize=12;startSize=8;endSize=8;entryX=1;entryY=0.5;entryDx=0;entryDy=0;" parent="1" source="_eSrgJDO7bjos9VQj2bo-20" target="_eSrgJDO7bjos9VQj2bo-2" edge="1">
          <mxGeometry relative="1" as="geometry">
            <mxPoint x="-40" y="190" as="targetPoint" />
          </mxGeometry>
        </mxCell>
        <mxCell id="neviRaYVwyy8WAOLnTko-9" value="moderator" style="swimlane;fontStyle=0;childLayout=stackLayout;horizontal=1;startSize=30;horizontalStack=0;resizeParent=1;resizeParentMax=0;resizeLast=0;collapsible=1;marginBottom=0;whiteSpace=wrap;html=1;" parent="1" vertex="1">
          <mxGeometry x="-1600" y="290" width="140" height="150" as="geometry" />
        </mxCell>
        <mxCell id="neviRaYVwyy8WAOLnTko-14" value="id" style="text;strokeColor=none;fillColor=none;align=left;verticalAlign=middle;spacingLeft=4;spacingRight=4;overflow=hidden;points=[[0,0.5],[1,0.5]];portConstraint=eastwest;rotatable=0;whiteSpace=wrap;html=1;" parent="neviRaYVwyy8WAOLnTko-9" vertex="1">
          <mxGeometry y="30" width="140" height="30" as="geometry" />
        </mxCell>
        <mxCell id="neviRaYVwyy8WAOLnTko-10" value="community_id" style="text;strokeColor=none;fillColor=none;align=left;verticalAlign=middle;spacingLeft=4;spacingRight=4;overflow=hidden;points=[[0,0.5],[1,0.5]];portConstraint=eastwest;rotatable=0;whiteSpace=wrap;html=1;" parent="neviRaYVwyy8WAOLnTko-9" vertex="1">
          <mxGeometry y="60" width="140" height="30" as="geometry" />
        </mxCell>
        <mxCell id="neviRaYVwyy8WAOLnTko-11" value="user_id" style="text;strokeColor=none;fillColor=none;align=left;verticalAlign=middle;spacingLeft=4;spacingRight=4;overflow=hidden;points=[[0,0.5],[1,0.5]];portConstraint=eastwest;rotatable=0;whiteSpace=wrap;html=1;" parent="neviRaYVwyy8WAOLnTko-9" vertex="1">
          <mxGeometry y="90" width="140" height="30" as="geometry" />
        </mxCell>
        <mxCell id="neviRaYVwyy8WAOLnTko-12" value="title" style="text;strokeColor=none;fillColor=none;align=left;verticalAlign=middle;spacingLeft=4;spacingRight=4;overflow=hidden;points=[[0,0.5],[1,0.5]];portConstraint=eastwest;rotatable=0;whiteSpace=wrap;html=1;" parent="neviRaYVwyy8WAOLnTko-9" vertex="1">
          <mxGeometry y="120" width="140" height="30" as="geometry" />
        </mxCell>
        <mxCell id="neviRaYVwyy8WAOLnTko-15" style="edgeStyle=none;curved=1;rounded=0;orthogonalLoop=1;jettySize=auto;html=1;exitX=0;exitY=0.5;exitDx=0;exitDy=0;fontSize=12;startSize=8;endSize=8;" parent="1" source="jVkeZ5hO6xtGJMO7U0UU-45" target="neviRaYVwyy8WAOLnTko-9" edge="1">
          <mxGeometry relative="1" as="geometry" />
        </mxCell>
        <mxCell id="neviRaYVwyy8WAOLnTko-29" style="edgeStyle=none;curved=1;rounded=0;orthogonalLoop=1;jettySize=auto;html=1;exitX=0;exitY=0.5;exitDx=0;exitDy=0;fontSize=12;startSize=8;endSize=8;" parent="1" source="neviRaYVwyy8WAOLnTko-24" target="jVkeZ5hO6xtGJMO7U0UU-110" edge="1">
          <mxGeometry relative="1" as="geometry" />
        </mxCell>
      </root>
    </mxGraphModel>
  </diagram>
  <diagram id="ckA5wqt7iOsb8avFtUpc" name="社区页">
    <mxGraphModel dx="2234" dy="1334" grid="1" gridSize="10" guides="1" tooltips="1" connect="1" arrows="1" fold="1" page="0" pageScale="1" pageWidth="1169" pageHeight="827" background="none" math="0" shadow="0">
      <root>
        <mxCell id="0" />
        <mxCell id="1" parent="0" />
        <mxCell id="kdJttf3_DK1EQLDPMVSq-26" value="" style="group" parent="1" vertex="1" connectable="0">
          <mxGeometry x="480" y="220" width="480" height="280" as="geometry" />
        </mxCell>
        <mxCell id="kdJttf3_DK1EQLDPMVSq-22" value="" style="rounded=0;whiteSpace=wrap;html=1;" parent="kdJttf3_DK1EQLDPMVSq-26" vertex="1">
          <mxGeometry width="480" height="280" as="geometry" />
        </mxCell>
        <mxCell id="kdJttf3_DK1EQLDPMVSq-4" value="" style="rounded=1;whiteSpace=wrap;html=1;container=0;" parent="kdJttf3_DK1EQLDPMVSq-26" vertex="1">
          <mxGeometry x="40" y="110" width="400" height="140" as="geometry" />
        </mxCell>
        <mxCell id="kdJttf3_DK1EQLDPMVSq-5" value="a_name" style="text;html=1;align=center;verticalAlign=middle;whiteSpace=wrap;rounded=0;fontSize=16;container=0;" parent="kdJttf3_DK1EQLDPMVSq-26" vertex="1">
          <mxGeometry x="100" y="130" width="60" height="30" as="geometry" />
        </mxCell>
        <mxCell id="kdJttf3_DK1EQLDPMVSq-6" value="A" style="ellipse;whiteSpace=wrap;html=1;aspect=fixed;container=0;" parent="kdJttf3_DK1EQLDPMVSq-26" vertex="1">
          <mxGeometry x="60" y="130" width="30" height="30" as="geometry" />
        </mxCell>
        <mxCell id="kdJttf3_DK1EQLDPMVSq-8" value="这是用户a_name的&lt;div&gt;&lt;br&gt;&lt;/div&gt;&lt;div&gt;发文comment_a1&lt;br&gt;&lt;/div&gt;" style="text;html=1;whiteSpace=wrap;overflow=hidden;rounded=0;container=0;" parent="kdJttf3_DK1EQLDPMVSq-26" vertex="1">
          <mxGeometry x="60" y="170" width="330" height="60" as="geometry" />
        </mxCell>
        <mxCell id="kdJttf3_DK1EQLDPMVSq-23" value="C" style="ellipse;whiteSpace=wrap;html=1;aspect=fixed;" parent="kdJttf3_DK1EQLDPMVSq-26" vertex="1">
          <mxGeometry x="20" y="10" width="30" height="30" as="geometry" />
        </mxCell>
        <mxCell id="kdJttf3_DK1EQLDPMVSq-24" value="c_name" style="text;html=1;align=center;verticalAlign=middle;whiteSpace=wrap;rounded=0;fontSize=16;" parent="kdJttf3_DK1EQLDPMVSq-26" vertex="1">
          <mxGeometry x="60" y="10" width="60" height="30" as="geometry" />
        </mxCell>
        <mxCell id="kdJttf3_DK1EQLDPMVSq-25" value="这是用户c_name的对下面这条发文的评论comment_c1" style="text;html=1;align=left;verticalAlign=middle;whiteSpace=wrap;rounded=0;fontSize=16;" parent="kdJttf3_DK1EQLDPMVSq-26" vertex="1">
          <mxGeometry x="20" y="50" width="360" height="50" as="geometry" />
        </mxCell>
        <mxCell id="kdJttf3_DK1EQLDPMVSq-27" value="" style="group;fontColor=default;" parent="1" vertex="1" connectable="0">
          <mxGeometry x="1050" y="220" width="480" height="280" as="geometry" />
        </mxCell>
        <mxCell id="kdJttf3_DK1EQLDPMVSq-28" value="" style="rounded=0;whiteSpace=wrap;html=1;" parent="kdJttf3_DK1EQLDPMVSq-27" vertex="1">
          <mxGeometry width="480" height="280" as="geometry" />
        </mxCell>
        <mxCell id="kdJttf3_DK1EQLDPMVSq-29" value="" style="rounded=1;whiteSpace=wrap;html=1;container=0;labelBackgroundColor=none;fontColor=#FFCCCC;arcSize=15;" parent="kdJttf3_DK1EQLDPMVSq-27" vertex="1">
          <mxGeometry x="40" y="110" width="400" height="140" as="geometry" />
        </mxCell>
        <mxCell id="kdJttf3_DK1EQLDPMVSq-30" value="c_name" style="text;html=1;align=center;verticalAlign=middle;whiteSpace=wrap;rounded=0;fontSize=16;container=0;" parent="kdJttf3_DK1EQLDPMVSq-27" vertex="1">
          <mxGeometry x="100" y="130" width="60" height="30" as="geometry" />
        </mxCell>
        <mxCell id="kdJttf3_DK1EQLDPMVSq-31" value="c" style="ellipse;whiteSpace=wrap;html=1;aspect=fixed;container=0;" parent="kdJttf3_DK1EQLDPMVSq-27" vertex="1">
          <mxGeometry x="60" y="130" width="30" height="30" as="geometry" />
        </mxCell>
        <mxCell id="kdJttf3_DK1EQLDPMVSq-32" value="这是用户c_name的&lt;div&gt;&lt;br&gt;&lt;/div&gt;&lt;div&gt;评论comment_c1&lt;br&gt;&lt;/div&gt;" style="text;html=1;whiteSpace=wrap;overflow=hidden;rounded=0;container=0;" parent="kdJttf3_DK1EQLDPMVSq-27" vertex="1">
          <mxGeometry x="75" y="170" width="330" height="60" as="geometry" />
        </mxCell>
        <mxCell id="kdJttf3_DK1EQLDPMVSq-33" value="A" style="ellipse;whiteSpace=wrap;html=1;aspect=fixed;" parent="kdJttf3_DK1EQLDPMVSq-27" vertex="1">
          <mxGeometry x="20" y="10" width="30" height="30" as="geometry" />
        </mxCell>
        <mxCell id="kdJttf3_DK1EQLDPMVSq-34" value="a_name" style="text;html=1;align=center;verticalAlign=middle;whiteSpace=wrap;rounded=0;fontSize=16;" parent="kdJttf3_DK1EQLDPMVSq-27" vertex="1">
          <mxGeometry x="60" y="10" width="60" height="30" as="geometry" />
        </mxCell>
        <mxCell id="kdJttf3_DK1EQLDPMVSq-35" value="这是用户a_name的对下面这条评论的评论comment_a2" style="text;html=1;align=left;verticalAlign=middle;whiteSpace=wrap;rounded=0;fontSize=16;" parent="kdJttf3_DK1EQLDPMVSq-27" vertex="1">
          <mxGeometry x="30" y="50" width="360" height="50" as="geometry" />
        </mxCell>
        <mxCell id="kdJttf3_DK1EQLDPMVSq-47" value="" style="group" parent="1" vertex="1" connectable="0">
          <mxGeometry x="1050" y="500" width="480" height="280" as="geometry" />
        </mxCell>
        <mxCell id="kdJttf3_DK1EQLDPMVSq-48" value="" style="rounded=0;whiteSpace=wrap;html=1;" parent="kdJttf3_DK1EQLDPMVSq-47" vertex="1">
          <mxGeometry width="480" height="280" as="geometry" />
        </mxCell>
        <mxCell id="kdJttf3_DK1EQLDPMVSq-49" value="" style="rounded=1;whiteSpace=wrap;html=1;container=0;" parent="kdJttf3_DK1EQLDPMVSq-47" vertex="1">
          <mxGeometry x="40" y="110" width="400" height="140" as="geometry" />
        </mxCell>
        <mxCell id="kdJttf3_DK1EQLDPMVSq-50" value="a_name" style="text;html=1;align=center;verticalAlign=middle;whiteSpace=wrap;rounded=0;fontSize=16;container=0;" parent="kdJttf3_DK1EQLDPMVSq-47" vertex="1">
          <mxGeometry x="100" y="130" width="60" height="30" as="geometry" />
        </mxCell>
        <mxCell id="kdJttf3_DK1EQLDPMVSq-51" value="A" style="ellipse;whiteSpace=wrap;html=1;aspect=fixed;container=0;" parent="kdJttf3_DK1EQLDPMVSq-47" vertex="1">
          <mxGeometry x="60" y="130" width="30" height="30" as="geometry" />
        </mxCell>
        <mxCell id="kdJttf3_DK1EQLDPMVSq-52" value="这是用户a_name的&lt;div&gt;&lt;br&gt;&lt;/div&gt;&lt;div&gt;评论comment_a2&lt;br&gt;&lt;/div&gt;" style="text;html=1;whiteSpace=wrap;overflow=hidden;rounded=0;container=0;" parent="kdJttf3_DK1EQLDPMVSq-47" vertex="1">
          <mxGeometry x="75" y="170" width="330" height="60" as="geometry" />
        </mxCell>
        <mxCell id="kdJttf3_DK1EQLDPMVSq-53" value="C" style="ellipse;whiteSpace=wrap;html=1;aspect=fixed;" parent="kdJttf3_DK1EQLDPMVSq-47" vertex="1">
          <mxGeometry x="20" y="10" width="30" height="30" as="geometry" />
        </mxCell>
        <mxCell id="kdJttf3_DK1EQLDPMVSq-54" value="c_name" style="text;html=1;align=center;verticalAlign=middle;whiteSpace=wrap;rounded=0;fontSize=16;" parent="kdJttf3_DK1EQLDPMVSq-47" vertex="1">
          <mxGeometry x="60" y="10" width="60" height="30" as="geometry" />
        </mxCell>
        <mxCell id="kdJttf3_DK1EQLDPMVSq-55" value="这是用户c_name的对下面这条评论的点赞like_c2" style="text;html=1;align=left;verticalAlign=middle;whiteSpace=wrap;rounded=0;fontSize=16;" parent="kdJttf3_DK1EQLDPMVSq-47" vertex="1">
          <mxGeometry x="30" y="50" width="360" height="50" as="geometry" />
        </mxCell>
        <mxCell id="kdJttf3_DK1EQLDPMVSq-57" value="" style="group" parent="1" vertex="1" connectable="0">
          <mxGeometry x="480" y="500" width="480" height="280" as="geometry" />
        </mxCell>
        <mxCell id="kdJttf3_DK1EQLDPMVSq-38" value="" style="rounded=0;whiteSpace=wrap;html=1;" parent="kdJttf3_DK1EQLDPMVSq-57" vertex="1">
          <mxGeometry width="480" height="280" as="geometry" />
        </mxCell>
        <mxCell id="kdJttf3_DK1EQLDPMVSq-37" value="" style="group" parent="kdJttf3_DK1EQLDPMVSq-57" vertex="1" connectable="0">
          <mxGeometry width="480" height="280" as="geometry" />
        </mxCell>
        <mxCell id="kdJttf3_DK1EQLDPMVSq-39" value="" style="rounded=1;whiteSpace=wrap;html=1;container=0;" parent="kdJttf3_DK1EQLDPMVSq-37" vertex="1">
          <mxGeometry x="40" y="110" width="400" height="140" as="geometry" />
        </mxCell>
        <mxCell id="kdJttf3_DK1EQLDPMVSq-40" value="a_name" style="text;html=1;align=center;verticalAlign=middle;whiteSpace=wrap;rounded=0;fontSize=16;container=0;" parent="kdJttf3_DK1EQLDPMVSq-37" vertex="1">
          <mxGeometry x="100" y="130" width="60" height="30" as="geometry" />
        </mxCell>
        <mxCell id="kdJttf3_DK1EQLDPMVSq-41" value="A" style="ellipse;whiteSpace=wrap;html=1;aspect=fixed;container=0;" parent="kdJttf3_DK1EQLDPMVSq-37" vertex="1">
          <mxGeometry x="60" y="130" width="30" height="30" as="geometry" />
        </mxCell>
        <mxCell id="kdJttf3_DK1EQLDPMVSq-43" value="C" style="ellipse;whiteSpace=wrap;html=1;aspect=fixed;" parent="kdJttf3_DK1EQLDPMVSq-37" vertex="1">
          <mxGeometry x="20" y="10" width="30" height="30" as="geometry" />
        </mxCell>
        <mxCell id="kdJttf3_DK1EQLDPMVSq-44" value="c_name" style="text;html=1;align=center;verticalAlign=middle;whiteSpace=wrap;rounded=0;fontSize=16;" parent="kdJttf3_DK1EQLDPMVSq-37" vertex="1">
          <mxGeometry x="60" y="10" width="60" height="30" as="geometry" />
        </mxCell>
        <mxCell id="kdJttf3_DK1EQLDPMVSq-45" value="这是用户c_name的对下面这条发文的点赞like_c1" style="text;html=1;align=left;verticalAlign=middle;whiteSpace=wrap;rounded=0;fontSize=16;" parent="kdJttf3_DK1EQLDPMVSq-37" vertex="1">
          <mxGeometry x="30" y="50" width="360" height="50" as="geometry" />
        </mxCell>
        <mxCell id="kdJttf3_DK1EQLDPMVSq-56" value="这是用户a_name的&lt;div&gt;&lt;br&gt;&lt;/div&gt;&lt;div&gt;发文comment_a1&lt;br&gt;&lt;/div&gt;" style="text;html=1;whiteSpace=wrap;overflow=hidden;rounded=0;container=0;" parent="kdJttf3_DK1EQLDPMVSq-37" vertex="1">
          <mxGeometry x="60" y="170" width="330" height="60" as="geometry" />
        </mxCell>
        <mxCell id="hqWqh04bu6UCQ28_1FPd-1" value="" style="group" parent="1" vertex="1" connectable="0">
          <mxGeometry x="480" y="80" width="480" height="140" as="geometry" />
        </mxCell>
        <mxCell id="kdJttf3_DK1EQLDPMVSq-60" value="" style="rounded=0;whiteSpace=wrap;html=1;container=0;" parent="hqWqh04bu6UCQ28_1FPd-1" vertex="1">
          <mxGeometry width="480" height="140" as="geometry" />
        </mxCell>
        <mxCell id="kdJttf3_DK1EQLDPMVSq-62" value="a_name" style="text;html=1;align=center;verticalAlign=middle;whiteSpace=wrap;rounded=0;fontSize=16;container=0;" parent="hqWqh04bu6UCQ28_1FPd-1" vertex="1">
          <mxGeometry x="60" y="20" width="60" height="30" as="geometry" />
        </mxCell>
        <mxCell id="kdJttf3_DK1EQLDPMVSq-63" value="A" style="ellipse;whiteSpace=wrap;html=1;aspect=fixed;container=0;" parent="hqWqh04bu6UCQ28_1FPd-1" vertex="1">
          <mxGeometry x="20" y="20" width="30" height="30" as="geometry" />
        </mxCell>
        <mxCell id="kdJttf3_DK1EQLDPMVSq-67" value="这是用户a_name的发文comment_a1" style="text;html=1;align=left;verticalAlign=middle;whiteSpace=wrap;rounded=0;fontSize=16;container=0;" parent="hqWqh04bu6UCQ28_1FPd-1" vertex="1">
          <mxGeometry x="20" y="60" width="360" height="50" as="geometry" />
        </mxCell>
        <mxCell id="FOpbTrgjBq9_TZXh8o8C-2" style="edgeStyle=none;curved=1;rounded=0;orthogonalLoop=1;jettySize=auto;html=1;exitX=0;exitY=0.5;exitDx=0;exitDy=0;fontSize=12;startSize=8;endSize=8;" parent="1" source="kdJttf3_DK1EQLDPMVSq-29" target="kdJttf3_DK1EQLDPMVSq-25" edge="1">
          <mxGeometry relative="1" as="geometry" />
        </mxCell>
        <mxCell id="FOpbTrgjBq9_TZXh8o8C-3" style="edgeStyle=none;curved=1;rounded=0;orthogonalLoop=1;jettySize=auto;html=1;exitX=0.5;exitY=0;exitDx=0;exitDy=0;fontSize=12;startSize=8;endSize=8;" parent="1" source="kdJttf3_DK1EQLDPMVSq-4" target="kdJttf3_DK1EQLDPMVSq-67" edge="1">
          <mxGeometry relative="1" as="geometry" />
        </mxCell>
        <mxCell id="FOpbTrgjBq9_TZXh8o8C-4" style="edgeStyle=none;curved=1;rounded=0;orthogonalLoop=1;jettySize=auto;html=1;exitX=0.5;exitY=0;exitDx=0;exitDy=0;fontSize=12;startSize=8;endSize=8;" parent="1" source="kdJttf3_DK1EQLDPMVSq-39" target="kdJttf3_DK1EQLDPMVSq-67" edge="1">
          <mxGeometry relative="1" as="geometry" />
        </mxCell>
        <mxCell id="nX_bhU0fHwdigL5SzfoW-1" value="" style="rounded=0;whiteSpace=wrap;html=1;" vertex="1" parent="1">
          <mxGeometry x="480" y="-190" width="480" height="190" as="geometry" />
        </mxCell>
        <mxCell id="nX_bhU0fHwdigL5SzfoW-2" value="板块名" style="rounded=1;whiteSpace=wrap;html=1;" vertex="1" parent="1">
          <mxGeometry x="530" y="-170" width="380" height="80" as="geometry" />
        </mxCell>
        <mxCell id="nX_bhU0fHwdigL5SzfoW-4" value="" style="shape=table;startSize=0;container=1;collapsible=0;childLayout=tableLayout;" vertex="1" parent="1">
          <mxGeometry x="480" y="-60" width="576" height="60" as="geometry" />
        </mxCell>
        <mxCell id="nX_bhU0fHwdigL5SzfoW-5" value="" style="shape=tableRow;horizontal=0;startSize=0;swimlaneHead=0;swimlaneBody=0;strokeColor=inherit;top=0;left=0;bottom=0;right=0;collapsible=0;dropTarget=0;fillColor=none;points=[[0,0.5],[1,0.5]];portConstraint=eastwest;" vertex="1" parent="nX_bhU0fHwdigL5SzfoW-4">
          <mxGeometry width="576" height="60" as="geometry" />
        </mxCell>
        <mxCell id="nX_bhU0fHwdigL5SzfoW-6" value="所有" style="shape=partialRectangle;html=1;whiteSpace=wrap;connectable=0;strokeColor=inherit;overflow=hidden;fillColor=none;top=0;left=0;bottom=0;right=0;pointerEvents=1;" vertex="1" parent="nX_bhU0fHwdigL5SzfoW-5">
          <mxGeometry width="96" height="60" as="geometry">
            <mxRectangle width="96" height="60" as="alternateBounds" />
          </mxGeometry>
        </mxCell>
        <mxCell id="nX_bhU0fHwdigL5SzfoW-7" value="规则" style="shape=partialRectangle;html=1;whiteSpace=wrap;connectable=0;strokeColor=inherit;overflow=hidden;fillColor=none;top=0;left=0;bottom=0;right=0;pointerEvents=1;" vertex="1" parent="nX_bhU0fHwdigL5SzfoW-5">
          <mxGeometry x="96" width="96" height="60" as="geometry">
            <mxRectangle width="96" height="60" as="alternateBounds" />
          </mxGeometry>
        </mxCell>
        <mxCell id="nX_bhU0fHwdigL5SzfoW-8" value="Thread1" style="shape=partialRectangle;html=1;whiteSpace=wrap;connectable=0;strokeColor=inherit;overflow=hidden;fillColor=none;top=0;left=0;bottom=0;right=0;pointerEvents=1;" vertex="1" parent="nX_bhU0fHwdigL5SzfoW-5">
          <mxGeometry x="192" width="96" height="60" as="geometry">
            <mxRectangle width="96" height="60" as="alternateBounds" />
          </mxGeometry>
        </mxCell>
        <mxCell id="nX_bhU0fHwdigL5SzfoW-9" value="Thread2" style="shape=partialRectangle;html=1;whiteSpace=wrap;connectable=0;strokeColor=inherit;overflow=hidden;fillColor=none;top=0;left=0;bottom=0;right=0;pointerEvents=1;" vertex="1" parent="nX_bhU0fHwdigL5SzfoW-5">
          <mxGeometry x="288" width="96" height="60" as="geometry">
            <mxRectangle width="96" height="60" as="alternateBounds" />
          </mxGeometry>
        </mxCell>
        <mxCell id="nX_bhU0fHwdigL5SzfoW-10" value="modrators" style="shape=partialRectangle;html=1;whiteSpace=wrap;connectable=0;strokeColor=inherit;overflow=hidden;fillColor=none;top=0;left=0;bottom=0;right=0;pointerEvents=1;" vertex="1" parent="nX_bhU0fHwdigL5SzfoW-5">
          <mxGeometry x="384" width="96" height="60" as="geometry">
            <mxRectangle width="96" height="60" as="alternateBounds" />
          </mxGeometry>
        </mxCell>
        <mxCell id="Vj_S-n6gTkAPovtY5JkN-2" value="+" style="shape=partialRectangle;html=1;whiteSpace=wrap;connectable=0;strokeColor=inherit;overflow=hidden;fillColor=none;top=0;left=0;bottom=0;right=0;pointerEvents=1;" vertex="1" parent="nX_bhU0fHwdigL5SzfoW-5">
          <mxGeometry x="480" width="96" height="60" as="geometry">
            <mxRectangle width="96" height="60" as="alternateBounds" />
          </mxGeometry>
        </mxCell>
        <mxCell id="vY1MmMD9prKwrrtGqB_U-13" value="" style="group" vertex="1" connectable="0" parent="1">
          <mxGeometry x="-540" y="230" width="330" height="390" as="geometry" />
        </mxCell>
        <mxCell id="vY1MmMD9prKwrrtGqB_U-1" value="" style="rounded=0;whiteSpace=wrap;html=1;" vertex="1" parent="vY1MmMD9prKwrrtGqB_U-13">
          <mxGeometry width="330" height="390" as="geometry" />
        </mxCell>
        <mxCell id="vY1MmMD9prKwrrtGqB_U-5" value="" style="group" vertex="1" connectable="0" parent="vY1MmMD9prKwrrtGqB_U-13">
          <mxGeometry x="40" y="40" width="120" height="40" as="geometry" />
        </mxCell>
        <mxCell id="vY1MmMD9prKwrrtGqB_U-2" value="" style="ellipse;whiteSpace=wrap;html=1;aspect=fixed;" vertex="1" parent="vY1MmMD9prKwrrtGqB_U-5">
          <mxGeometry width="40" height="40" as="geometry" />
        </mxCell>
        <mxCell id="vY1MmMD9prKwrrtGqB_U-3" value="Moderators" style="text;html=1;align=center;verticalAlign=middle;whiteSpace=wrap;rounded=0;fontSize=16;" vertex="1" parent="vY1MmMD9prKwrrtGqB_U-5">
          <mxGeometry x="60" y="5" width="60" height="30" as="geometry" />
        </mxCell>
        <mxCell id="vY1MmMD9prKwrrtGqB_U-6" value="" style="group" vertex="1" connectable="0" parent="vY1MmMD9prKwrrtGqB_U-13">
          <mxGeometry x="40" y="110" width="120" height="40" as="geometry" />
        </mxCell>
        <mxCell id="vY1MmMD9prKwrrtGqB_U-7" value="" style="ellipse;whiteSpace=wrap;html=1;aspect=fixed;" vertex="1" parent="vY1MmMD9prKwrrtGqB_U-6">
          <mxGeometry width="40" height="40" as="geometry" />
        </mxCell>
        <mxCell id="vY1MmMD9prKwrrtGqB_U-8" value="Moderators" style="text;html=1;align=center;verticalAlign=middle;whiteSpace=wrap;rounded=0;fontSize=16;" vertex="1" parent="vY1MmMD9prKwrrtGqB_U-6">
          <mxGeometry x="60" y="5" width="60" height="30" as="geometry" />
        </mxCell>
        <mxCell id="vY1MmMD9prKwrrtGqB_U-9" value="" style="group" vertex="1" connectable="0" parent="vY1MmMD9prKwrrtGqB_U-13">
          <mxGeometry x="40" y="180" width="120" height="40" as="geometry" />
        </mxCell>
        <mxCell id="vY1MmMD9prKwrrtGqB_U-10" value="" style="ellipse;whiteSpace=wrap;html=1;aspect=fixed;" vertex="1" parent="vY1MmMD9prKwrrtGqB_U-9">
          <mxGeometry width="40" height="40" as="geometry" />
        </mxCell>
        <mxCell id="vY1MmMD9prKwrrtGqB_U-11" value="Moderators" style="text;html=1;align=center;verticalAlign=middle;whiteSpace=wrap;rounded=0;fontSize=16;" vertex="1" parent="vY1MmMD9prKwrrtGqB_U-9">
          <mxGeometry x="60" y="5" width="60" height="30" as="geometry" />
        </mxCell>
        <mxCell id="vY1MmMD9prKwrrtGqB_U-12" value="+" style="ellipse;whiteSpace=wrap;html=1;aspect=fixed;" vertex="1" parent="vY1MmMD9prKwrrtGqB_U-13">
          <mxGeometry x="40" y="260" width="40" height="40" as="geometry" />
        </mxCell>
        <mxCell id="vY1MmMD9prKwrrtGqB_U-20" value="" style="group" vertex="1" connectable="0" parent="1">
          <mxGeometry x="-100" y="270" width="250" height="330" as="geometry" />
        </mxCell>
        <mxCell id="vY1MmMD9prKwrrtGqB_U-14" value="" style="rounded=0;whiteSpace=wrap;html=1;" vertex="1" parent="vY1MmMD9prKwrrtGqB_U-20">
          <mxGeometry width="250" height="330" as="geometry" />
        </mxCell>
        <mxCell id="vY1MmMD9prKwrrtGqB_U-15" value="搜索框:搜索user_account" style="rounded=0;whiteSpace=wrap;html=1;" vertex="1" parent="vY1MmMD9prKwrrtGqB_U-20">
          <mxGeometry x="40" y="35" width="170" height="60" as="geometry" />
        </mxCell>
        <mxCell id="vY1MmMD9prKwrrtGqB_U-16" value="" style="group" vertex="1" connectable="0" parent="vY1MmMD9prKwrrtGqB_U-20">
          <mxGeometry x="40" y="130" width="120" height="40" as="geometry" />
        </mxCell>
        <mxCell id="vY1MmMD9prKwrrtGqB_U-17" value="" style="ellipse;whiteSpace=wrap;html=1;aspect=fixed;" vertex="1" parent="vY1MmMD9prKwrrtGqB_U-16">
          <mxGeometry width="40" height="40" as="geometry" />
        </mxCell>
        <mxCell id="vY1MmMD9prKwrrtGqB_U-18" value="Users_name" style="text;html=1;align=center;verticalAlign=middle;whiteSpace=wrap;rounded=0;fontSize=16;" vertex="1" parent="vY1MmMD9prKwrrtGqB_U-16">
          <mxGeometry x="60" y="5" width="60" height="30" as="geometry" />
        </mxCell>
        <mxCell id="vY1MmMD9prKwrrtGqB_U-19" value="add" style="rounded=1;whiteSpace=wrap;html=1;" vertex="1" parent="vY1MmMD9prKwrrtGqB_U-20">
          <mxGeometry x="65" y="210" width="120" height="60" as="geometry" />
        </mxCell>
        <mxCell id="ajPvo7mWnc8zpn5wLAd1-1" value="评论输入框" style="rounded=0;whiteSpace=wrap;html=1;" vertex="1" parent="1">
          <mxGeometry x="480" width="480" height="80" as="geometry" />
        </mxCell>
        <mxCell id="M_KWXYRLJmpCOStEqfdU-2" value="删除" style="ellipse;whiteSpace=wrap;html=1;aspect=fixed;" vertex="1" parent="1">
          <mxGeometry x="930" y="-170" width="20" height="20" as="geometry" />
        </mxCell>
      </root>
    </mxGraphModel>
  </diagram>
  <diagram id="kYsJXo81NlS1U4soTKNX" name="详情页">
    <mxGraphModel dx="1434" dy="1334" grid="1" gridSize="10" guides="1" tooltips="1" connect="1" arrows="0" fold="1" page="0" pageScale="1" pageWidth="1169" pageHeight="827" background="none" math="0" shadow="0">
      <root>
        <mxCell id="0" />
        <mxCell id="1" parent="0" />
        <mxCell id="lK1bBA-wG1J_6awI6jop-1" value="" style="group" vertex="1" connectable="0" parent="1">
          <mxGeometry x="190" y="-320" width="480" height="200" as="geometry" />
        </mxCell>
        <mxCell id="Sa71QlGmAk2H_-zrEojM-16" value="" style="group" vertex="1" connectable="0" parent="lK1bBA-wG1J_6awI6jop-1">
          <mxGeometry width="480" height="140" as="geometry" />
        </mxCell>
        <mxCell id="lK1bBA-wG1J_6awI6jop-2" value="" style="rounded=0;whiteSpace=wrap;html=1;container=0;" vertex="1" parent="Sa71QlGmAk2H_-zrEojM-16">
          <mxGeometry width="480" height="140" as="geometry" />
        </mxCell>
        <mxCell id="lK1bBA-wG1J_6awI6jop-3" value="a_name" style="text;html=1;align=center;verticalAlign=middle;whiteSpace=wrap;rounded=0;fontSize=16;container=0;" vertex="1" parent="Sa71QlGmAk2H_-zrEojM-16">
          <mxGeometry x="60" y="20" width="60" height="30" as="geometry" />
        </mxCell>
        <mxCell id="lK1bBA-wG1J_6awI6jop-4" value="A" style="ellipse;whiteSpace=wrap;html=1;aspect=fixed;container=0;" vertex="1" parent="Sa71QlGmAk2H_-zrEojM-16">
          <mxGeometry x="20" y="20" width="30" height="30" as="geometry" />
        </mxCell>
        <mxCell id="lK1bBA-wG1J_6awI6jop-5" value="这是用户a_name的发文comment_a1" style="text;html=1;align=left;verticalAlign=middle;whiteSpace=wrap;rounded=0;fontSize=16;container=0;" vertex="1" parent="Sa71QlGmAk2H_-zrEojM-16">
          <mxGeometry x="60" y="60" width="360" height="50" as="geometry" />
        </mxCell>
        <mxCell id="Sa71QlGmAk2H_-zrEojM-13" value="点赞数,评论数,转发的操作的合集" style="rounded=0;whiteSpace=wrap;html=1;" vertex="1" parent="lK1bBA-wG1J_6awI6jop-1">
          <mxGeometry y="140" width="480" height="60" as="geometry" />
        </mxCell>
        <mxCell id="Sa71QlGmAk2H_-zrEojM-15" value="评论的输入框" style="rounded=0;whiteSpace=wrap;html=1;" vertex="1" parent="1">
          <mxGeometry x="190" y="-120" width="480" height="80" as="geometry" />
        </mxCell>
        <mxCell id="lK1bBA-wG1J_6awI6jop-6" value="" style="rounded=0;whiteSpace=wrap;html=1;container=0;" vertex="1" parent="1">
          <mxGeometry x="190" y="-40" width="480" height="160" as="geometry" />
        </mxCell>
        <mxCell id="KfS7hZodDWw9Cr5QtKwv-1" value="这是用户c_name的对comment_a1的评论comment_c1" style="text;html=1;align=left;verticalAlign=middle;whiteSpace=wrap;rounded=0;fontSize=16;container=0;" vertex="1" parent="1">
          <mxGeometry x="260" y="40" width="360" height="50" as="geometry" />
        </mxCell>
        <mxCell id="Sa71QlGmAk2H_-zrEojM-1" value="C" style="ellipse;whiteSpace=wrap;html=1;aspect=fixed;container=0;" vertex="1" parent="1">
          <mxGeometry x="210" y="-10" width="40" height="40" as="geometry" />
        </mxCell>
        <mxCell id="Sa71QlGmAk2H_-zrEojM-2" value="c_name" style="text;html=1;align=center;verticalAlign=middle;whiteSpace=wrap;rounded=0;fontSize=16;container=0;" vertex="1" parent="1">
          <mxGeometry x="260" y="-5" width="60" height="30" as="geometry" />
        </mxCell>
        <mxCell id="Sl01JBFBS8Ab-OQAVRfT-31" value="" style="group" vertex="1" connectable="0" parent="1">
          <mxGeometry x="750" y="120" width="480" height="390" as="geometry" />
        </mxCell>
        <mxCell id="Sl01JBFBS8Ab-OQAVRfT-17" value="" style="rounded=0;whiteSpace=wrap;html=1;container=0;" vertex="1" parent="Sl01JBFBS8Ab-OQAVRfT-31">
          <mxGeometry width="480" height="390" as="geometry" />
        </mxCell>
        <mxCell id="Sl01JBFBS8Ab-OQAVRfT-18" value="这是用户b_name的对comment_a1的评论comment_b1" style="text;html=1;align=left;verticalAlign=middle;whiteSpace=wrap;rounded=0;fontSize=16;container=0;" vertex="1" parent="Sl01JBFBS8Ab-OQAVRfT-31">
          <mxGeometry x="90" y="87.03703703703707" width="360" height="48.14814814814815" as="geometry" />
        </mxCell>
        <mxCell id="Sl01JBFBS8Ab-OQAVRfT-19" value="B" style="ellipse;whiteSpace=wrap;html=1;aspect=fixed;container=0;" vertex="1" parent="Sl01JBFBS8Ab-OQAVRfT-31">
          <mxGeometry x="40" y="38.888888888888914" width="37.03703703703704" height="37.03703703703704" as="geometry" />
        </mxCell>
        <mxCell id="Sl01JBFBS8Ab-OQAVRfT-20" value="b_name" style="text;html=1;align=center;verticalAlign=middle;whiteSpace=wrap;rounded=0;fontSize=16;container=0;" vertex="1" parent="Sl01JBFBS8Ab-OQAVRfT-31">
          <mxGeometry x="90" y="43.703703703703695" width="60" height="28.88888888888889" as="geometry" />
        </mxCell>
        <mxCell id="Sl01JBFBS8Ab-OQAVRfT-21" value="c" style="ellipse;whiteSpace=wrap;html=1;aspect=fixed;container=0;" vertex="1" parent="Sl01JBFBS8Ab-OQAVRfT-31">
          <mxGeometry x="40" y="154.44444444444446" width="37.03703703703704" height="37.03703703703704" as="geometry" />
        </mxCell>
        <mxCell id="Sl01JBFBS8Ab-OQAVRfT-22" value="a_name" style="text;html=1;align=center;verticalAlign=middle;whiteSpace=wrap;rounded=0;fontSize=16;container=0;" vertex="1" parent="Sl01JBFBS8Ab-OQAVRfT-31">
          <mxGeometry x="90" y="159.25925925925924" width="60" height="28.88888888888889" as="geometry" />
        </mxCell>
        <mxCell id="Sl01JBFBS8Ab-OQAVRfT-30" style="edgeStyle=none;curved=1;rounded=0;orthogonalLoop=1;jettySize=auto;html=1;exitX=0.5;exitY=0;exitDx=0;exitDy=0;fontSize=12;startSize=8;endSize=8;" edge="1" parent="Sl01JBFBS8Ab-OQAVRfT-31" source="Sl01JBFBS8Ab-OQAVRfT-23" target="Sl01JBFBS8Ab-OQAVRfT-18">
          <mxGeometry relative="1" as="geometry" />
        </mxCell>
        <mxCell id="Sl01JBFBS8Ab-OQAVRfT-23" value="对上面评论的评论comment_c2" style="text;html=1;align=left;verticalAlign=middle;whiteSpace=wrap;rounded=0;fontSize=16;container=0;" vertex="1" parent="Sl01JBFBS8Ab-OQAVRfT-31">
          <mxGeometry x="90" y="202.5925925925926" width="300" height="28.88888888888889" as="geometry" />
        </mxCell>
        <mxCell id="Sl01JBFBS8Ab-OQAVRfT-25" value="c" style="ellipse;whiteSpace=wrap;html=1;aspect=fixed;container=0;" vertex="1" parent="Sl01JBFBS8Ab-OQAVRfT-31">
          <mxGeometry x="40" y="260.00444444444446" width="37.03703703703704" height="37.03703703703704" as="geometry" />
        </mxCell>
        <mxCell id="Sl01JBFBS8Ab-OQAVRfT-27" value="a_name" style="text;html=1;align=center;verticalAlign=middle;whiteSpace=wrap;rounded=0;fontSize=16;container=0;" vertex="1" parent="Sl01JBFBS8Ab-OQAVRfT-31">
          <mxGeometry x="90" y="268.1492592592593" width="60" height="28.88888888888889" as="geometry" />
        </mxCell>
        <mxCell id="Sl01JBFBS8Ab-OQAVRfT-29" style="edgeStyle=none;curved=1;rounded=0;orthogonalLoop=1;jettySize=auto;html=1;exitX=0.5;exitY=0;exitDx=0;exitDy=0;fontSize=12;startSize=8;endSize=8;" edge="1" parent="Sl01JBFBS8Ab-OQAVRfT-31" source="Sl01JBFBS8Ab-OQAVRfT-28" target="Sl01JBFBS8Ab-OQAVRfT-23">
          <mxGeometry relative="1" as="geometry" />
        </mxCell>
        <mxCell id="Sl01JBFBS8Ab-OQAVRfT-28" value="对上面评论的评论comment_c2" style="text;html=1;align=left;verticalAlign=middle;whiteSpace=wrap;rounded=0;fontSize=16;container=0;" vertex="1" parent="Sl01JBFBS8Ab-OQAVRfT-31">
          <mxGeometry x="90" y="310.0025925925926" width="300" height="28.88888888888889" as="geometry" />
        </mxCell>
        <mxCell id="Sl01JBFBS8Ab-OQAVRfT-7" value="" style="rounded=0;whiteSpace=wrap;html=1;container=0;" vertex="1" parent="1">
          <mxGeometry x="190" y="120" width="480" height="260" as="geometry" />
        </mxCell>
        <mxCell id="Sl01JBFBS8Ab-OQAVRfT-8" value="这是用户b_name的对comment_a1的评论comment_b1" style="text;html=1;align=left;verticalAlign=middle;whiteSpace=wrap;rounded=0;fontSize=16;container=0;" vertex="1" parent="1">
          <mxGeometry x="260" y="197.03703703703707" width="360" height="48.14814814814815" as="geometry" />
        </mxCell>
        <mxCell id="Sl01JBFBS8Ab-OQAVRfT-9" value="B" style="ellipse;whiteSpace=wrap;html=1;aspect=fixed;container=0;" vertex="1" parent="1">
          <mxGeometry x="210" y="148.8888888888889" width="37.03703703703704" height="37.03703703703704" as="geometry" />
        </mxCell>
        <mxCell id="Sl01JBFBS8Ab-OQAVRfT-10" value="b_name" style="text;html=1;align=center;verticalAlign=middle;whiteSpace=wrap;rounded=0;fontSize=16;container=0;" vertex="1" parent="1">
          <mxGeometry x="260" y="153.7037037037037" width="60" height="28.88888888888889" as="geometry" />
        </mxCell>
        <mxCell id="Sl01JBFBS8Ab-OQAVRfT-11" value="c" style="ellipse;whiteSpace=wrap;html=1;aspect=fixed;container=0;" vertex="1" parent="1">
          <mxGeometry x="210" y="264.44444444444446" width="37.03703703703704" height="37.03703703703704" as="geometry" />
        </mxCell>
        <mxCell id="Sl01JBFBS8Ab-OQAVRfT-12" value="a_name" style="text;html=1;align=center;verticalAlign=middle;whiteSpace=wrap;rounded=0;fontSize=16;container=0;" vertex="1" parent="1">
          <mxGeometry x="260" y="269.25925925925924" width="60" height="28.88888888888889" as="geometry" />
        </mxCell>
        <mxCell id="Sl01JBFBS8Ab-OQAVRfT-13" value="对上面评论 贴主/最早的评论comment_c2" style="text;html=1;align=left;verticalAlign=middle;whiteSpace=wrap;rounded=0;fontSize=16;container=0;" vertex="1" parent="1">
          <mxGeometry x="250" y="312.5925925925926" width="300" height="28.88888888888889" as="geometry" />
        </mxCell>
      </root>
    </mxGraphModel>
  </diagram>
  <diagram id="y6MgFSSQ6oyrOlZpm43Y" name="个人页">
    <mxGraphModel dx="1834" dy="1334" grid="1" gridSize="10" guides="1" tooltips="1" connect="1" arrows="1" fold="1" page="0" pageScale="1" pageWidth="1169" pageHeight="827" math="0" shadow="0">
      <root>
        <mxCell id="0" />
        <mxCell id="1" parent="0" />
        <mxCell id="VrBbuYVczd2WBwaAH3zv-1" value="" style="group" parent="1" vertex="1" connectable="0">
          <mxGeometry x="-10" y="300" width="480" height="280" as="geometry" />
        </mxCell>
        <mxCell id="VrBbuYVczd2WBwaAH3zv-2" value="" style="rounded=0;whiteSpace=wrap;html=1;" parent="VrBbuYVczd2WBwaAH3zv-1" vertex="1">
          <mxGeometry width="480" height="280" as="geometry" />
        </mxCell>
        <mxCell id="VrBbuYVczd2WBwaAH3zv-3" value="" style="rounded=1;whiteSpace=wrap;html=1;container=0;" parent="VrBbuYVczd2WBwaAH3zv-1" vertex="1">
          <mxGeometry x="40" y="110" width="400" height="140" as="geometry" />
        </mxCell>
        <mxCell id="VrBbuYVczd2WBwaAH3zv-4" value="a_name" style="text;html=1;align=center;verticalAlign=middle;whiteSpace=wrap;rounded=0;fontSize=16;container=0;" parent="VrBbuYVczd2WBwaAH3zv-1" vertex="1">
          <mxGeometry x="100" y="130" width="60" height="30" as="geometry" />
        </mxCell>
        <mxCell id="VrBbuYVczd2WBwaAH3zv-5" value="A" style="ellipse;whiteSpace=wrap;html=1;aspect=fixed;container=0;" parent="VrBbuYVczd2WBwaAH3zv-1" vertex="1">
          <mxGeometry x="60" y="130" width="30" height="30" as="geometry" />
        </mxCell>
        <mxCell id="VrBbuYVczd2WBwaAH3zv-6" value="这是用户a_name的&lt;div&gt;&lt;br&gt;&lt;/div&gt;&lt;div&gt;发文comment_a1&lt;br&gt;&lt;/div&gt;" style="text;html=1;whiteSpace=wrap;overflow=hidden;rounded=0;container=0;" parent="VrBbuYVczd2WBwaAH3zv-1" vertex="1">
          <mxGeometry x="60" y="170" width="330" height="60" as="geometry" />
        </mxCell>
        <mxCell id="VrBbuYVczd2WBwaAH3zv-7" value="C" style="ellipse;whiteSpace=wrap;html=1;aspect=fixed;" parent="VrBbuYVczd2WBwaAH3zv-1" vertex="1">
          <mxGeometry x="20" y="10" width="30" height="30" as="geometry" />
        </mxCell>
        <mxCell id="VrBbuYVczd2WBwaAH3zv-8" value="c_name" style="text;html=1;align=center;verticalAlign=middle;whiteSpace=wrap;rounded=0;fontSize=16;" parent="VrBbuYVczd2WBwaAH3zv-1" vertex="1">
          <mxGeometry x="60" y="10" width="60" height="30" as="geometry" />
        </mxCell>
        <mxCell id="VrBbuYVczd2WBwaAH3zv-9" value="这是用户c_name的对下面这条发文的评论comment_c1" style="text;html=1;align=left;verticalAlign=middle;whiteSpace=wrap;rounded=0;fontSize=16;" parent="VrBbuYVczd2WBwaAH3zv-1" vertex="1">
          <mxGeometry x="20" y="50" width="360" height="50" as="geometry" />
        </mxCell>
        <mxCell id="VrBbuYVczd2WBwaAH3zv-10" value="" style="group" parent="1" vertex="1" connectable="0">
          <mxGeometry x="-10" y="580" width="480" height="280" as="geometry" />
        </mxCell>
        <mxCell id="VrBbuYVczd2WBwaAH3zv-11" value="" style="rounded=0;whiteSpace=wrap;html=1;" parent="VrBbuYVczd2WBwaAH3zv-10" vertex="1">
          <mxGeometry width="480" height="280" as="geometry" />
        </mxCell>
        <mxCell id="VrBbuYVczd2WBwaAH3zv-12" value="" style="group" parent="VrBbuYVczd2WBwaAH3zv-10" vertex="1" connectable="0">
          <mxGeometry width="480" height="280" as="geometry" />
        </mxCell>
        <mxCell id="VrBbuYVczd2WBwaAH3zv-13" value="" style="rounded=1;whiteSpace=wrap;html=1;container=0;" parent="VrBbuYVczd2WBwaAH3zv-12" vertex="1">
          <mxGeometry x="40" y="110" width="400" height="140" as="geometry" />
        </mxCell>
        <mxCell id="VrBbuYVczd2WBwaAH3zv-14" value="a_name" style="text;html=1;align=center;verticalAlign=middle;whiteSpace=wrap;rounded=0;fontSize=16;container=0;" parent="VrBbuYVczd2WBwaAH3zv-12" vertex="1">
          <mxGeometry x="100" y="130" width="60" height="30" as="geometry" />
        </mxCell>
        <mxCell id="VrBbuYVczd2WBwaAH3zv-15" value="A" style="ellipse;whiteSpace=wrap;html=1;aspect=fixed;container=0;" parent="VrBbuYVczd2WBwaAH3zv-12" vertex="1">
          <mxGeometry x="60" y="130" width="30" height="30" as="geometry" />
        </mxCell>
        <mxCell id="VrBbuYVczd2WBwaAH3zv-16" value="C" style="ellipse;whiteSpace=wrap;html=1;aspect=fixed;" parent="VrBbuYVczd2WBwaAH3zv-12" vertex="1">
          <mxGeometry x="20" y="10" width="30" height="30" as="geometry" />
        </mxCell>
        <mxCell id="VrBbuYVczd2WBwaAH3zv-17" value="c_name" style="text;html=1;align=center;verticalAlign=middle;whiteSpace=wrap;rounded=0;fontSize=16;" parent="VrBbuYVczd2WBwaAH3zv-12" vertex="1">
          <mxGeometry x="60" y="10" width="60" height="30" as="geometry" />
        </mxCell>
        <mxCell id="VrBbuYVczd2WBwaAH3zv-18" value="这是用户c_name的对下面这条发文的点赞like_c1" style="text;html=1;align=left;verticalAlign=middle;whiteSpace=wrap;rounded=0;fontSize=16;" parent="VrBbuYVczd2WBwaAH3zv-12" vertex="1">
          <mxGeometry x="30" y="50" width="360" height="50" as="geometry" />
        </mxCell>
        <mxCell id="VrBbuYVczd2WBwaAH3zv-19" value="这是用户a_name的&lt;div&gt;&lt;br&gt;&lt;/div&gt;&lt;div&gt;发文comment_a1&lt;br&gt;&lt;/div&gt;" style="text;html=1;whiteSpace=wrap;overflow=hidden;rounded=0;container=0;" parent="VrBbuYVczd2WBwaAH3zv-12" vertex="1">
          <mxGeometry x="60" y="170" width="330" height="60" as="geometry" />
        </mxCell>
        <mxCell id="VrBbuYVczd2WBwaAH3zv-20" value="" style="group" parent="1" vertex="1" connectable="0">
          <mxGeometry x="-10" y="160" width="480" height="140" as="geometry" />
        </mxCell>
        <mxCell id="VrBbuYVczd2WBwaAH3zv-21" value="" style="rounded=0;whiteSpace=wrap;html=1;container=0;" parent="VrBbuYVczd2WBwaAH3zv-20" vertex="1">
          <mxGeometry width="480" height="140" as="geometry" />
        </mxCell>
        <mxCell id="VrBbuYVczd2WBwaAH3zv-22" value="c_name" style="text;html=1;align=center;verticalAlign=middle;whiteSpace=wrap;rounded=0;fontSize=16;container=0;" parent="VrBbuYVczd2WBwaAH3zv-20" vertex="1">
          <mxGeometry x="60" y="20" width="60" height="30" as="geometry" />
        </mxCell>
        <mxCell id="VrBbuYVczd2WBwaAH3zv-23" value="C" style="ellipse;whiteSpace=wrap;html=1;aspect=fixed;container=0;" parent="VrBbuYVczd2WBwaAH3zv-20" vertex="1">
          <mxGeometry x="20" y="20" width="30" height="30" as="geometry" />
        </mxCell>
        <mxCell id="VrBbuYVczd2WBwaAH3zv-24" value="这是用户c_name的发文comment_c1" style="text;html=1;align=left;verticalAlign=middle;whiteSpace=wrap;rounded=0;fontSize=16;container=0;" parent="VrBbuYVczd2WBwaAH3zv-20" vertex="1">
          <mxGeometry x="20" y="60" width="360" height="50" as="geometry" />
        </mxCell>
        <mxCell id="4Hm0HTHNxlee0Gf80AZu-1" value="删除" style="ellipse;whiteSpace=wrap;html=1;aspect=fixed;" vertex="1" parent="VrBbuYVczd2WBwaAH3zv-20">
          <mxGeometry x="420" y="10" width="40" height="40" as="geometry" />
        </mxCell>
        <mxCell id="VrBbuYVczd2WBwaAH3zv-32" value="" style="group" parent="1" vertex="1" connectable="0">
          <mxGeometry x="-10" y="-20" width="480" height="180" as="geometry" />
        </mxCell>
        <mxCell id="VrBbuYVczd2WBwaAH3zv-28" value="" style="rounded=0;whiteSpace=wrap;html=1;" parent="VrBbuYVczd2WBwaAH3zv-32" vertex="1">
          <mxGeometry width="480" height="180" as="geometry" />
        </mxCell>
        <mxCell id="VrBbuYVczd2WBwaAH3zv-29" value="c" style="ellipse;whiteSpace=wrap;html=1;aspect=fixed;" parent="VrBbuYVczd2WBwaAH3zv-32" vertex="1">
          <mxGeometry x="20" y="20" width="80" height="80" as="geometry" />
        </mxCell>
        <mxCell id="VrBbuYVczd2WBwaAH3zv-31" value="&lt;h1 style=&quot;margin-top: 0px;&quot;&gt;c_name&lt;span style=&quot;white-space: pre;&quot;&gt;&#x9;&lt;/span&gt;&lt;/h1&gt;&lt;p&gt;Lorem ipsum dolor sit amet, consectetur adipisicing elit, sed do eiusmod tempor incididunt ut labore et dolore magna aliqua.&lt;/p&gt;" style="text;html=1;whiteSpace=wrap;overflow=hidden;rounded=0;" parent="VrBbuYVczd2WBwaAH3zv-32" vertex="1">
          <mxGeometry x="120" y="30" width="180" height="120" as="geometry" />
        </mxCell>
      </root>
    </mxGraphModel>
  </diagram>
  <diagram id="3a946V8rioo_bVO_4Jd2" name="搜索页">
    <mxGraphModel dx="1834" dy="1334" grid="1" gridSize="10" guides="1" tooltips="1" connect="1" arrows="1" fold="1" page="0" pageScale="1" pageWidth="1169" pageHeight="827" math="0" shadow="0">
      <root>
        <mxCell id="0" />
        <mxCell id="1" parent="0" />
        <mxCell id="atQmBdxJQSkrBBziUAZX-1" value="" style="group" vertex="1" connectable="0" parent="1">
          <mxGeometry x="-140" y="-90" width="300" height="570" as="geometry" />
        </mxCell>
        <mxCell id="X_S4lIYmyH6WUkebsd6D-1" value="" style="rounded=0;whiteSpace=wrap;html=1;" vertex="1" parent="atQmBdxJQSkrBBziUAZX-1">
          <mxGeometry width="300" height="570" as="geometry" />
        </mxCell>
        <mxCell id="X_S4lIYmyH6WUkebsd6D-2" value="搜索框" style="rounded=1;whiteSpace=wrap;html=1;" vertex="1" parent="atQmBdxJQSkrBBziUAZX-1">
          <mxGeometry x="40" y="50" width="210" height="60" as="geometry" />
        </mxCell>
        <mxCell id="X_S4lIYmyH6WUkebsd6D-3" value="收藏的板块" style="rounded=0;whiteSpace=wrap;html=1;" vertex="1" parent="atQmBdxJQSkrBBziUAZX-1">
          <mxGeometry x="40" y="250" width="210" height="90" as="geometry" />
        </mxCell>
        <mxCell id="evUACv8s1EhM4tU5fnqk-2" value="" style="group" vertex="1" connectable="0" parent="1">
          <mxGeometry x="370" y="-60" width="330" height="510" as="geometry" />
        </mxCell>
        <mxCell id="atQmBdxJQSkrBBziUAZX-2" value="" style="rounded=0;whiteSpace=wrap;html=1;" vertex="1" parent="evUACv8s1EhM4tU5fnqk-2">
          <mxGeometry width="330" height="510" as="geometry" />
        </mxCell>
        <mxCell id="atQmBdxJQSkrBBziUAZX-3" value="搜索词" style="rounded=0;whiteSpace=wrap;html=1;" vertex="1" parent="evUACv8s1EhM4tU5fnqk-2">
          <mxGeometry x="30" y="20" width="280" height="60" as="geometry" />
        </mxCell>
        <mxCell id="atQmBdxJQSkrBBziUAZX-4" value="板块,创建板块" style="rounded=0;whiteSpace=wrap;html=1;" vertex="1" parent="evUACv8s1EhM4tU5fnqk-2">
          <mxGeometry x="30" y="100" width="280" height="100" as="geometry" />
        </mxCell>
        <mxCell id="evUACv8s1EhM4tU5fnqk-1" value="帖子列表" style="rounded=0;whiteSpace=wrap;html=1;" vertex="1" parent="evUACv8s1EhM4tU5fnqk-2">
          <mxGeometry x="30" y="225" width="280" height="245" as="geometry" />
        </mxCell>
      </root>
    </mxGraphModel>
  </diagram>
  <diagram id="KvjJfIAkk3x5jY0A95IN" name="登录页面">
    <mxGraphModel dx="1434" dy="934" grid="1" gridSize="10" guides="1" tooltips="1" connect="1" arrows="1" fold="1" page="0" pageScale="1" pageWidth="1169" pageHeight="827" math="0" shadow="0">
      <root>
        <mxCell id="0" />
        <mxCell id="1" parent="0" />
      </root>
    </mxGraphModel>
  </diagram>
</mxfile>
